<svg clip-rule="evenodd" fill-rule="evenodd" height="512" image-rendering="optimizeQuality" shape-rendering="geometricPrecision" text-rendering="geometricPrecision" viewBox="0 0 2048 2048" width="512" xmlns="http://www.w3.org/2000/svg"><g id="Layer_x0020_1"><g id="_520893272"><g fill="#1e81ce"><path id="_520895840" d="m926.488 228.61h-331.516c-7.67953 0-13.911-6.22678-13.911-13.9051.00236221-7.67717 6.22914-13.9063 13.9075-13.9063h331.519c7.68071 0 13.9075 6.22914 13.9075 13.9063.00354331 7.67599-6.22914 13.9075-13.9075 13.9051zm526.544 0h-331.52c-7.67599 0-13.9075-6.22678-13.9075-13.9051.00236221-7.67717 6.22796-13.9063 13.9051-13.9063h331.523c7.67599 0 13.9039 6.22914 13.9039 13.9063.0011811 7.67599-6.22796 13.9075-13.9039 13.9051zm256.301 681.546h-1370.66c-7.67953 0-13.9087-6.22914-13.9087-13.9063l.00354331-681.545c0-7.67717 6.2256-13.9063 13.9028-13.9063h61.2804c7.7126 0 13.9039 6.22914 13.9039 13.9063.0011811 7.67599-6.19252 13.9075-13.9075 13.9075l-47.3693-.00236221v653.732h1342.85v-653.732h-47.4048c-7.67953 0-13.9099-6.22678-13.9099-13.9051.0011811-7.67717 6.22914-13.9063 13.9087-13.9063h61.3158c7.67599 0 13.9039 6.22914 13.9039 13.9063l.0011811 681.544c0 7.67717-6.23032 13.9075-13.9051 13.9075z"/><path id="_520895816" d="m1469.73 978.024h-888.664c-7.7126 0-13.9087-6.22796-13.9087-13.9063.00236221-7.71615 6.19371-13.9075 13.9063-13.9075l888.667-.0011811c7.67599 0 13.9039 6.19489 13.9039 13.9087.0011811 7.67717-6.23032 13.9075-13.9039 13.9063z"/><path id="_520895288" d="m830.918 978.024v41.7922c0 23.0705 18.7205 41.83 41.7898 41.83l305.375-.0011811c23.0327 0 41.7886-18.7583 41.7886-41.8276l.0011811-41.7933h-388.955zm347.165 111.436h-305.374c-38.3882 0-69.6071-31.2532-69.6071-69.6426l.00236221-55.7008c0-7.71497 6.2256-13.9063 13.9039-13.9063l416.775-.0011811c7.67599 0 13.9039 6.19489 13.9039 13.9087l.00236221 55.6985c0 38.3894-31.2213 69.6449-69.606 69.6438z"/><path id="_520895624" d="m880.099 1900.19h290.594v-810.726h-290.594zm304.503 27.815h-318.412c-7.7126 0-13.9063-6.22914-13.9063-13.9075v-838.541c0-7.71379 6.19134-13.9063 13.9063-13.9063l318.412-.0011811c7.67717 0 13.9028 6.19489 13.9028 13.9087l.00354331 838.54c0 7.67835-6.2315 13.9075-13.9063 13.9075z"/><path id="_520895600" d="m1649.43 1928h-1248.07c-7.67599 0-13.9063-6.22914-13.9063-13.9075.0011811-7.67835 6.22914-13.9075 13.9063-13.9075h1248.07c7.67953 0 13.9063 6.23032 13.9063 13.9075.00354331 7.67835-6.22914 13.9075-13.9063 13.9075z"/><path id="_520895720" d="m1497.58 147.814c-16.8768 0-30.6402 13.7622-30.6402 30.6744l.0011811 72.43c0 16.9134 13.761 30.6768 30.6378 30.6768l105.895-.0011811c16.9122 0 30.6378-13.761 30.6378-30.6733l.0011811-72.4323c0-16.9134-13.7268-30.6744-30.639-30.6744h-105.894zm105.894 161.594h-105.894c-32.2323 0-58.4528-26.2547-58.4528-58.4871l.00236221-72.4323c0-32.2311 26.2181-58.4882 58.4493-58.4882h105.895c32.2323 0 58.4516 26.2571 58.4516 58.4882l.0011811 72.43c0 32.2347-26.2205 58.4906-58.4528 58.4894z"/><path id="_520894904" d="m971.074 147.814c-16.9169 0-30.678 13.7622-30.678 30.6744l.00354331 72.43c0 16.9134 13.7575 30.6768 30.6709 30.6768l105.861-.0011811c16.9134 0 30.6733-13.761 30.6733-30.6733l.00236221-72.4323c0-16.9134-13.7646-30.6744-30.678-30.6744h-105.855zm105.858 161.594h-105.858c-32.2677 0-58.493-26.2547-58.493-58.4871l.00236221-72.4323c0-32.2311 26.2181-58.4882 58.4871-58.4882h105.861c32.2311 0 58.4871 26.2571 58.4871 58.4882v72.43c0 32.2347-26.2571 58.4906-58.4871 58.4894z"/><path id="_520894880" d="m444.531 147.814c-16.9122 0-30.6768 13.7622-30.6768 30.6744l.0011811 72.43c0 16.9134 13.761 30.6768 30.6733 30.6768l105.86-.0011811c16.9122 0 30.6733-13.761 30.6733-30.6733l.00236221-72.4323c0-16.9134-13.7634-30.6744-30.6768-30.6744h-105.856zm105.858 161.594h-105.858c-32.2323 0-58.4906-26.2547-58.4906-58.4871v-72.4323c0-32.2311 26.2559-58.4882 58.4882-58.4882h105.86c32.2677 0 58.4882 26.2571 58.4882 58.4882l.0011811 72.43c0 32.2347-26.2217 58.4906-58.4894 58.4894z"/><path id="_520894976" d="m722.67 402.338c-35.0611 0-63.5634 28.5012-63.5634 63.5599l.00354331 102.708c0 35.0563 28.4988 63.5587 63.5563 63.5587l128.098-.0011811v-229.825h-128.094zm141.999 257.639h-141.999c-50.38 0-91.3761-40.9949-91.3761-91.3713l.0011811-102.71c0-50.3752 40.9949-91.3701 91.3713-91.3701l142.003-.0011811c7.67717 0 13.9051 6.22914 13.9051 13.9075l.0011811 257.639c0 7.67717-6.22914 13.9075-13.9063 13.9063z"/><path id="_520894952" d="m1133.5 723.028c-2.09646 0-4.2378-.468898-6.22914-1.48347-.252756-.145276-26.7272-13.3276-64.8993-27.5244-9.70513-3.58583-19.4469-6.98977-28.9725-10.1032-65.9823-21.5847-123.712-29.915-166.882-24.0839-7.60158 1.01339-14.5949-4.27323-15.6449-11.915-1.01102-7.60512 4.30866-14.5949 11.9516-15.6461 47.9528-6.44528 108.248 1.99252 179.231 25.2071 9.85394 3.22205 19.9547 6.73701 29.9858 10.4658 39.7311 14.7756 66.5658 28.1764 67.6878 28.7197 6.88229 3.43937 9.63426 11.8063 6.19252 18.6874-2.42244 4.85315-7.31457 7.67835-12.4217 7.67599z"/><path id="_520894568" d="m895.887 404.331c-11.2618 0-22.3465-.651969-33.065-2.10118-7.64174-1.05118-12.9662-8.03977-11.9516-15.6449 1.05118-7.64174 8.0752-12.965 15.6449-11.9516 107.271 14.4851 261.188-60.2989 262.745-61.0595 6.88229-3.40394 15.2114-.543308 18.6154 6.3378 3.37087 6.91536.543308 15.2469-6.37441 18.6154-5.97284 2.93268-135.373 65.804-245.614 65.804z"/><path id="_520895072" d="m1147.41 695.214h104.08v-354.733h-104.08zm117.991 27.8138h-131.902c-7.67599 0-13.9063-6.22678-13.9063-13.9051l.0011811-382.549c0-7.67717 6.22796-13.9051 13.9051-13.9051l131.902-.0011811c7.67599 0 13.9028 6.23032 13.9028 13.9075l.00236221 382.548c0 7.67835-6.2315 13.9075-13.9051 13.9051z"/><path id="_520895192" d="m810.637 832.002c-.184252 0-.364961.0011811-.546851-.0354331l-93.8339-3.58583c-6.66142-.252756-12.241-5.25-13.2201-11.8784-15.0638-101.695 35.0929-175.285 37.2307-178.363 4.38189-6.30119 13.0382-7.85906 19.3748-3.47599 6.30473 4.34528 7.85906 13.0016 3.47717 19.3028l.00236221-.0011811c-.434646.651969-42.1571 62.4367-33.9733 147.073l79.1339 3.04016c3.18544-1.3748 6.40749-3.36614 8.07402-4.88741-1.34055-1.52244-4.59922-4.49055-12.2043-8.51103-2.35158-1.23071-4.34646-3.15118-5.6504-5.50394l-16.8366-30.0591c-3.29646-5.90434-1.88622-13.2921 3.32835-17.5654l14.8866-12.2055-10.1776-10.7929c-3.00709-3.18544-4.34764-7.56733-3.58701-11.8772.72756-4.30985 3.44173-8.03977 7.31575-10.0311.329528-.18189 35.2028-18.6886 25.8579-41.2512-2.9315-7.09725.435827-15.2469 7.53426-18.1795 7.09725-2.93386 15.2469.434646 18.1795 7.53308 11.8075 28.5366-5.79331 52.5496-23.7213 66.7819l3.83977 4.01929c2.42717 2.57008 3.80197 5.97638 3.80197 9.5256l.00354331 9.81261c.0354331 4.20118-1.84961 8.15079-5.07402 10.8295l-12.2386 9.9945 9.20079 16.3713c9.08859 5.10591 25.311 16.0795 23.9705 33.1736-1.51772 19.4103-24.952 28.3925-29.661 29.987-1.44449.504331-2.96929.760631-4.48701.759449z"/><path id="_520895168" d="m1265.4 589.502c-7.68071 0-13.911-6.22914-13.911-13.9063 0-7.67953 6.23032-13.9075 13.9063-13.9075 24.1925-.0011811 43.8579-19.6654 43.8579-43.8567.0011811-24.1571-19.6654-43.8213-43.8579-43.8213-7.67599-.00236221-13.9063-6.22914-13.9063-13.9075 0-7.67717 6.23032-13.9063 13.9063-13.9063 39.5126-.0011811 71.6717 32.1591 71.6717 71.6351.00354331 39.5103-32.1591 71.6717-71.667 71.6705z"/><path id="_520895120" d="m799.665 468.54h-89.4556c-7.67953 0-13.9087-6.22796-13.9087-13.9063.00354331-7.67835 6.22914-13.9063 13.9075-13.9063h89.4568c7.67599 0 13.9028 6.22914 13.9028 13.9063.00236221 7.67717-6.22914 13.9075-13.9028 13.9063z"/><path id="_520894496" d="m799.665 531.159h-89.4556c-7.67953 0-13.9087-6.23032-13.9087-13.9075.00354331-7.67953 6.22914-13.9063 13.9075-13.9063l89.4568-.00236221c7.67599 0 13.9028 6.23032 13.9028 13.9087.00236221 7.67717-6.22914 13.9075-13.9028 13.9075z"/><path id="_520894280" d="m799.665 593.774h-89.4556c-7.67953 0-13.9087-6.22678-13.9087-13.9051.00354331-7.67835 6.22914-13.9075 13.9075-13.9075h89.4568c7.67599 0 13.9028 6.23032 13.9028 13.9075.00236221 7.67717-6.22914 13.9063-13.9028 13.9051z"/></g><g fill="#f8fafb"><path id="_520894160" d="m550.387 147.814h-105.856c-16.9122 0-30.6768 13.7622-30.6768 30.6744v36.2162l.0011811 36.2138c0 16.9134 13.761 30.6768 30.6733 30.6768l105.86-.0011811c16.9122 0 30.6733-13.761 30.6733-30.6733l.0011811-36.0331c-.0011811-.0614174-.0011811-.121654-.0011811-.183071 0-.0602363 0-.119291.0011811-.179528l.0011811-36.0366c0-16.9134-13.7634-30.6744-30.6768-30.6744z"/><path id="_520893992" d="m1076.93 147.814h-105.855c-16.9169 0-30.678 13.7622-30.678 30.6744v36.2162l.00354331 36.2138c0 16.9134 13.7575 30.6768 30.6709 30.6768l105.861-.0011811c16.9134 0 30.6733-13.761 30.6733-30.6733l.0011811-36.0331c-.0011811-.0614174-.0011811-.121654-.0011811-.183071 0-.0602363 0-.119291.0011811-.179528l.0011811-36.0366c0-16.9134-13.7646-30.6744-30.678-30.6744z"/><path id="_520894064" d="m1603.47 147.814h-105.894c-16.8768 0-30.6402 13.7622-30.6402 30.6744v36.2162l.0011811 36.2138c0 16.9134 13.761 30.6768 30.6378 30.6768l105.895-.0011811c16.9122 0 30.6378-13.761 30.6378-30.6733v-36.0874c0-.0425197 0-.0862205 0-.12874 0-.0425197 0-.0850394.0011811-.127559v-36.0886c0-16.9134-13.7268-30.6744-30.639-30.6744z"/><path id="_520893800" d="m799.665 593.774h-89.4556c-7.67953 0-13.9087-6.22678-13.9087-13.9051.00354331-7.67835 6.22914-13.9075 13.9075-13.9075h89.4568c7.67599 0 13.9028 6.23032 13.9028 13.9075.00236221 7.67717-6.22914 13.9063-13.9028 13.9051zm0-62.615h-89.4556c-7.67953 0-13.9087-6.23032-13.9087-13.9075.00354331-7.67953 6.22914-13.9063 13.9075-13.9063l89.4568-.00236221c7.67599 0 13.9028 6.23032 13.9028 13.9087.00236221 7.67717-6.22914 13.9075-13.9028 13.9075zm0-62.6186h-89.4556c-7.67953 0-13.9087-6.22796-13.9087-13.9063.00354331-7.67835 6.22914-13.9063 13.9075-13.9063h89.4568c7.67599 0 13.9028 6.22914 13.9028 13.9063.00236221 7.67717-6.22914 13.9075-13.9028 13.9063zm51.0993-66.202h-128.094c-35.0611 0-63.5634 28.5012-63.5634 63.5599l.00354331 102.708c0 35.0563 28.4988 63.5587 63.5563 63.5587l108.991-.0011811c.320079-.0106299.640158-.0106299.959056 0h18.1477v-229.825z"/><path id="_520894304" d="m820.863 659.977h-61.4233c-10.0961 17.5016-37.0099 71.5808-30.2918 141.062l79.1339 3.04016c3.18544-1.3748 6.40749-3.36614 8.07402-4.88741-1.34055-1.52244-4.59922-4.49055-12.2043-8.51103-2.35158-1.23071-4.34646-3.15118-5.6504-5.50394l-16.8366-30.0591c-3.29646-5.90434-1.88622-13.2921 3.32835-17.5654l14.8866-12.2055-10.1776-10.7929c-3.00709-3.18544-4.34764-7.56733-3.58701-11.8772.72756-4.30985 3.44173-8.03977 7.31575-10.0311.287008-.158268 26.7-14.1756 27.4323-32.6681z"/><path id="_520894448" d="m1119.59 348.54c-42.476 18.476-138.776 55.7906-223.706 55.7906-5.82756 0-11.6067-.174803-17.3126-.543308l.0011811 226.93c45.1748-2.92441 100.061 6.02126 163.478 26.7614 9.85394 3.22205 19.9547 6.73701 29.9858 10.4658 19.4374 7.22835 35.7886 14.1284 47.5524 19.3547l.0011811-338.759z"/><path id="_520894424" d="m1251.49 340.481h-104.08v354.733h104.08v-119.619-115.493z"/><path id="_520893512" d="m1309.25 517.831c.0011811-19.3051-12.5575-35.7402-29.9492-41.5642v83.1627c17.3906-5.82638 29.9492-22.2662 29.9492-41.5985z"/></g><path id="_520893320" d="m1497.58 309.408c-32.2323 0-58.4528-26.2547-58.4528-58.4871l.0011811-22.311h-303.707v22.3087c0 32.2347-26.2571 58.4906-58.4871 58.4894h-105.858c-32.2677 0-58.493-26.2547-58.493-58.4871l.0011811-22.311h-303.704v22.3087c0 32.2347-26.2217 58.4906-58.4894 58.4894h-105.858c-32.2323 0-58.4906-26.2547-58.4906-58.4871v-22.3099l-33.463-.0011811v653.732h1342.85v-653.732h-33.4996v22.3087c0 32.2347-26.2205 58.4906-58.4528 58.4894h-105.894zm-218.273 138.143c32.8819 6.49371 57.763 35.5571 57.763 70.2804.00354331 34.754-24.8823 63.8221-57.763 70.3158l.0011811 120.976c0 7.67835-6.2315 13.9075-13.9051 13.9051h-131.889c-.00472441 0-.00826772 0-.0129921 0-2.09646 0-4.2378-.468898-6.22914-1.48347-.170079-.0732284-.333071-.159449-.494882-.248032-3.80197-1.88386-29.1-14.1461-64.4044-27.2764-9.70513-3.58583-19.4469-6.98977-28.9725-10.1032-65.5843-21.4547-123.015-29.8146-166.099-24.1878-.851575.162992-1.73032.248032-2.62914.248032h-15.8362c-.281103 20.0138-13.8201 36.652-27.5516 47.5524l3.83977 4.01929c2.42717 2.57008 3.80197 5.97638 3.80197 9.5256l.00354331 9.81261c.0354331 4.20118-1.84961 8.15079-5.07402 10.8295l-12.2386 9.9945 9.20079 16.3713c9.08859 5.10591 25.311 16.0795 23.9705 33.1736-1.51772 19.4103-24.952 28.3925-29.661 29.987-1.44449.504331-2.96929.760631-4.48701.759449-.184252 0-.364961.0011811-.546851-.0354331l-93.8339-3.58583c-6.66142-.252756-12.241-5.25-13.2201-11.8784-10.4043-70.2414 10.3051-127.075 24.8162-156.526h-5.18268c-50.38 0-91.3761-40.9949-91.3761-91.3713l.0011811-102.71c0-50.3752 40.9949-91.3701 91.3713-91.3701l141.354-.0011811c.819686-.0377953 1.65354-.00354331 2.49449.108662 97.1658 13.1209 232.602-47.0008 258.415-59.0103 1.6748-1.31221 3.65788-2.24882 5.82166-2.68229 2.78504-.99567 5.72481-1.04055 8.42717-.271654l126.221-.0011811c7.67599 0 13.9028 6.23032 13.9028 13.9075l.0011811 120.976z" fill="#9bc9ff"/><path id="_520893344" d="m1170.69 1089.46h-290.591v810.73h290.591z" fill="#9bc9ff"/><path id="_520893560" d="m1219.87 978.024h-388.955v41.7922c0 23.0551 18.6957 41.8052 41.7449 41.83h.0448819l305.375-.0011811c23.0327 0 41.7886-18.7583 41.7886-41.8276l.0011811-41.7933z" fill="#f8fafb"/></g></g></svg>