<svg id="Capa_1" enable-background="new 0 0 512 512" height="512" viewBox="0 0 512 512" width="512" xmlns="http://www.w3.org/2000/svg" xmlns:xlink="http://www.w3.org/1999/xlink"><linearGradient id="SVGID_1_" gradientUnits="userSpaceOnUse" x1="93.407" x2="418.835" y1="445.02" y2="119.593"><stop offset="0" stop-color="#ffd8d8" stop-opacity="0"/><stop offset=".9981" stop-color="#ffb2b2"/></linearGradient><g><g><path d="m508.871 277.972c-9.25-54.529-73.642-85.232-93.683-136.488-59.858-153.089-212.644-119.392-260.734-92.816-69.845 38.598-133.766 110.466-150.029 189.289-62.402 302.451 556.647 347.728 504.446 40.015z" fill="url(#SVGID_1_)"/></g><path d="m452.745 281.065h-7.826c2.761 0 5-2.239 5-5v-136.153c0-2.761-2.239-5-5-5h-49.19l25.847-30.686 5.459 6.466h-.092c-2.347 0-4.469 1.581-4.969 3.874-.709 3.252 1.749 6.126 4.877 6.126h19.461c2.612 0 4.944-1.91 5.191-4.51.284-2.982-2.054-5.49-4.977-5.49h-6.404l-14.73-17.447c-.95-1.125-2.348-1.774-3.82-1.774h-.003c-1.474.001-2.872.651-3.821 1.779l-32.38 38.442c-.791.938-1.154 2.082-1.153 3.22h-77.341l25.847-30.686 5.459 6.466h-.093c-2.347 0-4.469 1.581-4.969 3.874-.709 3.252 1.749 6.126 4.877 6.126h19.462c2.612 0 4.944-1.91 5.191-4.51.284-2.982-2.054-5.49-4.977-5.49h-6.404l-14.73-17.447c-.95-1.125-2.348-1.774-3.82-1.774h-.003c-1.474.001-2.872.651-3.821 1.779l-32.38 38.442c-.791.938-1.154 2.082-1.153 3.22h-77.342l25.847-30.686 5.458 6.466h-.092c-2.347 0-4.469 1.581-4.969 3.874-.709 3.252 1.749 6.126 4.877 6.126h19.462c2.612 0 4.944-1.91 5.191-4.51.284-2.982-2.054-5.49-4.977-5.49h-6.404l-14.73-17.447c-.95-1.125-2.348-1.774-3.82-1.774h-.003c-1.474.001-2.872.651-3.821 1.779l-32.38 38.442c-.791.938-1.154 2.082-1.153 3.22h-77.341l25.847-30.686 5.458 6.466h-.092c-2.347 0-4.469 1.581-4.969 3.874-.709 3.252 1.749 6.126 4.877 6.126h19.461c2.612 0 4.944-1.91 5.191-4.51.284-2.982-2.054-5.49-4.977-5.49h-6.404l-14.73-17.447c-.95-1.125-2.348-1.774-3.82-1.774h-.003c-1.474.001-2.872.651-3.821 1.779l-32.38 38.442c-.791.938-1.154 2.082-1.153 3.22h-50.567c-2.761 0-5 2.239-5 5v136.153c0 2.761 2.239 5 5 5h-7.826c-2.761 0-5 2.239-5 5v10.282c0 2.761 2.239 5 5 5h16.114v12.166c0 5.523 4.477 10 10 10h3.441v75.379c0 2.761 2.239 5 5 5h10c2.761 0 5-2.239 5-5v-75.379h3.432c5.523 0 10-4.477 10-10v-12.166h86.795l-.016.005-116.972 179.179c-1.303 1.995.129 4.64 2.512 4.64h322.878c2.383 0 3.815-2.645 2.512-4.64l-116.971-179.18-.016-.005h86.795v12.166c0 5.523 4.477 10 10 10h3.432v75.379c0 2.761 2.239 5 5 5h10c2.761 0 5-2.239 5-5v-75.379h3.441c5.523 0 10-4.477 10-10v-12.166h16.114c2.761 0 5-2.239 5-5v-10.282c-.001-2.761-2.24-4.999-5.001-4.999z" fill="#0000cb" opacity=".1"/><g><g><g><g><g><path d="m422.98 461.171h-150.02l-16.96-9.92-16.96 9.92h-150.02l120-183.82h93.96z" fill="#4d4dff"/><path d="m318.645 301.347-15.665-23.996h-93.96l-15.665 23.996z" fill="#2c27ff"/><path d="m272.958 461.172h-33.916l12.187-183.825h9.542z" fill="#fff"/><path d="m249.638 301.347h12.724l-1.591-23.996h-9.542z" fill="#d8d8ff"/></g><g><path d="m444.919 257.065h-377.838c-2.761 0-5-2.239-5-5v-136.153c0-2.761 2.239-5 5-5h377.838c2.761 0 5 2.239 5 5v136.153c0 2.761-2.239 5-5 5z" fill="#b2b2ff"/></g><g><g><path d="m112.242 299.512h-26.873c-5.523 0-10-4.477-10-10v-12.166h46.872v12.166c.001 5.523-4.476 10-9.999 10z" fill="#fa6"/><g><path d="m88.81 299.511h20v80.38h-20z" fill="#b2b2ff"/></g><path d="m88.81 299.511h20v24h-20z" fill="#9393ff"/></g><g><path d="m426.631 299.512h-26.872c-5.523 0-10-4.477-10-10v-12.166h46.872v12.166c0 5.523-4.477 10-10 10z" fill="#fa6"/><g><path d="m403.19 299.511h20v80.38h-20z" fill="#b2b2ff"/></g><path d="m403.19 299.511h20v24h-20z" fill="#9393ff"/></g></g><path d="m452.745 277.347h-393.49c-2.761 0-5-2.239-5-5v-10.282c0-2.761 2.239-5 5-5h393.489c2.761 0 5 2.239 5 5v10.282c.001 2.761-2.238 5-4.999 5z" fill="#ffd5ba"/><g fill="#0000cb"><path d="m325.978 303.43c-1.509-2.312-4.607-2.964-6.92-1.453-2.312 1.509-2.963 4.607-1.454 6.92l101.188 155.01c.959 1.469 2.559 2.268 4.192 2.268.937 0 1.885-.264 2.728-.814 2.312-1.509 2.963-4.607 1.454-6.92z"/><path d="m454.907 252.307c.002-.081.012-.16.012-.242v-136.153c0-5.514-4.486-10-10-10h-44.979l21.636-25.687 5.459 6.466h-.184c-2.761 0-5 2.238-5 5s2.239 5 5 5h19.676c2.761 0 5-2.238 5-5s-2.239-5-5-5h-6.404l-14.73-17.447c-.95-1.125-2.348-1.774-3.82-1.774-.001 0-.002 0-.003 0-1.474.001-2.872.651-3.821 1.779l-30.881 36.663h-75.782l21.636-25.687 5.459 6.466h-.185c-2.761 0-5 2.238-5 5s2.239 5 5 5h19.676c2.761 0 5-2.238 5-5s-2.239-5-5-5h-6.404l-14.73-17.447c-.95-1.125-2.348-1.774-3.82-1.774-.001 0-.002 0-.003 0-1.474.001-2.872.651-3.821 1.779l-30.881 36.663h-75.782l21.636-25.687 5.458 6.466h-.184c-2.761 0-5 2.238-5 5s2.239 5 5 5h19.676c2.761 0 5-2.238 5-5s-2.239-5-5-5h-6.404l-14.73-17.447c-.95-1.125-2.348-1.774-3.82-1.774-.001 0-.002 0-.003 0-1.474.001-2.872.651-3.821 1.779l-30.882 36.663h-75.782l21.636-25.687 5.458 6.466h-.184c-2.761 0-5 2.238-5 5s2.239 5 5 5h19.676c2.761 0 5-2.238 5-5s-2.239-5-5-5h-6.404l-14.73-17.447c-.95-1.125-2.348-1.774-3.82-1.774-.001 0-.002 0-.003 0-1.474.001-2.872.651-3.821 1.779l-30.882 36.663h-53.22c-5.514 0-10 4.486-10 10v109.52c0 2.762 2.239 5 5 5s5-2.238 5-5v-109.52h377.838l.006 136.153h-.006-385.664c-5.514 0-10 4.486-10 10v10.281c0 5.514 4.486 10 10 10h11.114v7.166c0 7.743 5.898 14.133 13.437 14.918v75.458c0 2.762 2.239 5 5 5h20c2.761 0 5-2.238 5-5v-75.458c7.539-.785 13.436-7.174 13.436-14.917v-7.166h72.544l-114.953 176.092c-1.509 2.312-.858 5.411 1.454 6.92.843.551 1.791.814 2.728.814 1.633 0 3.233-.799 4.192-2.268l118.52-181.56h173.03v7.166c0 7.743 5.897 14.133 13.436 14.917v75.458c0 2.762 2.239 5 5 5h20c2.761 0 5-2.238 5-5v-75.456c7.539-.784 13.437-7.174 13.437-14.918v-7.166h11.114c5.514 0 10-4.486 10-10v-10.281c.001-4.77-3.36-8.766-7.837-9.758zm-361.101 122.582v-70.376h10v70.376zm23.436-85.376c0 2.757-2.243 5-5 5h-26.873c-2.757 0-5-2.243-5-5v-7.166h36.873zm290.952 85.376v-70.376h10v70.376zm23.437-85.376c0 2.757-2.243 5-5 5h-26.873c-2.757 0-5-2.243-5-5v-7.166h36.873zm-372.376-17.166v-10.281h393.489l.006 10.281z"/></g></g></g><g><g><path d="m193.355 140.201v83.497l-23.147 11.053h-23.557l-17.651-3-20.171 3h-11.234c-5.523 0-10-4.477-10-10v-81.525c0-5.523 4.477-10 10-10h40.722z" fill="#9393ff"/><path d="m200.478 143.226v81.525c0 5.523-4.477 10-10 10h-20.269c2.241-1.938 4.296-4.401 6.456-7.448v-32.417c-1.984 3.315-6.222 6.969-12.678 10.938-6.467 4.144-19.646 9.584-19.646 21.059 0 3.397.91 5.954 2.311 7.868h-37.823c-.397-7.296 1.529-14.755 6.047-20.429 13.471-16.903 37.962-17.72 55.449-28.343 4.226-2.568 6.339-6.094 6.339-10.565v-19.495c-.012-6.946-4.565-13.133-11.195-15.211-8.522-2.673-17.113-.163-21.631 1.646 16.6 10.273 9.036 35.056-10.191 35.044-15.479 0-23.242-18.748-14.79-30.947 4.599-6.642 11.825-10.646 19.46-13.226h52.162c5.522.001 9.999 4.478 9.999 10.001z" fill="#d8d8ff"/></g><path d="m419.405 178.1h-195.597c-2.761 0-5-2.239-5-5v-23.825c0-2.761 2.239-5 5-5h195.597c2.761 0 5 2.239 5 5v23.825c0 2.761-2.238 5-5 5z" fill="#ff6c6c"/><path d="m398.19 163.784h-86.407c-2.761 0-5-2.239-5-5v-9.51c0-2.761 2.239-5 5-5h86.407c2.761 0 5 2.239 5 5v9.51c0 2.762-2.239 5-5 5z" fill="#ff4d4d"/></g><g><g><path d="m261.157 203.574h-37.194c-2.761 0-5-2.238-5-5s2.239-5 5-5h37.194c2.761 0 5 2.238 5 5s-2.239 5-5 5z" fill="#fff"/></g><g><path d="m293.99 223.698h-70.027c-2.761 0-5-2.238-5-5s2.239-5 5-5h70.027c2.761 0 5 2.238 5 5s-2.239 5-5 5z" fill="#fff"/></g><g><path d="m293.99 203.574h-11.477c-2.761 0-5-2.238-5-5s2.239-5 5-5h11.477c2.761 0 5 2.238 5 5s-2.239 5-5 5z" fill="#fff"/></g></g><g><g><path d="m373.514 203.574h-50.857c-2.761 0-5-2.238-5-5s2.239-5 5-5h50.857c2.761 0 5 2.238 5 5s-2.239 5-5 5z" fill="#fff"/></g><g><path d="m418.407 223.698h-95.75c-2.761 0-5-2.238-5-5s2.239-5 5-5h95.75c2.761 0 5 2.238 5 5s-2.239 5-5 5z" fill="#fff"/></g><g><path d="m418.407 203.574h-19.692c-2.761 0-5-2.238-5-5s2.239-5 5-5h19.692c2.761 0 5 2.238 5 5s-2.239 5-5 5z" fill="#fff"/></g></g><path d="m398.19 154.029h-86.407c-2.761 0-5-2.239-5-5v-9.51c0-2.761 2.239-5 5-5h86.407c2.761 0 5 2.239 5 5v9.51c0 2.762-2.239 5-5 5z" fill="#ffb2b2"/></g><g><path d="m49.331 89.507c-1.28 0-2.559-.488-3.536-1.465l-10.5-10.5c-1.953-1.952-1.953-5.118 0-7.07l10.5-10.5c1.953-1.953 5.118-1.953 7.071 0l10.5 10.5c1.953 1.952 1.953 5.118 0 7.07l-10.5 10.5c-.976.976-2.256 1.465-3.535 1.465zm-3.429-15.5 3.429 3.429 3.429-3.429-3.429-3.429z" fill="#fa6"/></g><g><path d="m449.919 432.967c-1.28 0-2.559-.488-3.536-1.465l-10.5-10.5c-1.953-1.952-1.953-5.118 0-7.07l10.5-10.5c1.953-1.953 5.118-1.953 7.071 0l10.5 10.5c1.953 1.952 1.953 5.118 0 7.07l-10.5 10.5c-.976.976-2.255 1.465-3.535 1.465zm-3.429-15.5 3.429 3.429 3.429-3.429-3.429-3.429z" fill="#ff6c6c"/></g><g><path d="m466.225 384.26c-8.271 0-15-6.729-15-15s6.729-15 15-15 15 6.729 15 15-6.729 15-15 15zm0-20c-2.757 0-5 2.243-5 5s2.243 5 5 5 5-2.243 5-5-2.244-5-5-5z" fill="#8282ff"/></g><g><path d="m370.532 54.11c-8.271 0-15-6.729-15-15s6.729-15 15-15 15 6.729 15 15-6.729 15-15 15zm0-20c-2.757 0-5 2.243-5 5s2.243 5 5 5 5-2.243 5-5-2.243-5-5-5z" fill="#ff6c6c"/></g><g><path d="m44.255 352.871c-8.271 0-15-6.729-15-15s6.729-15 15-15 15 6.729 15 15-6.729 15-15 15zm0-20c-2.757 0-5 2.243-5 5s2.243 5 5 5 5-2.243 5-5-2.243-5-5-5z" fill="#8282ff"/></g></g></g></svg>