<svg id="Layer_1" viewBox="0 0 512 512" xmlns="http://www.w3.org/2000/svg" data-name="Layer 1"><path d="m215.291 122.141-4.672 14.291 12.046-8.781c4.181-3.095 9.807-3.099 14.023-.004l12.034 8.772-4.655-14.194c-1.583-5.011.185-10.331 4.372-13.321l12.058-8.721-14.928.03c-5.142 0-9.676-3.271-11.298-8.142l-4.606-14.291-4.581 14.216c-1.647 4.945-6.182 8.217-11.307 8.217l-14.943-.03 12.096 8.749c4.148 2.962 5.917 8.282 4.361 13.209z" fill="#7fbae5"/><path d="m186.148 193.233-10.452-19.656c-.265-.499-.47-.637-.915-.778l-1.525-.496-20.015 49.787 20.447-3.926c2.914-.562 5.903.54 7.759 2.857l13.016 16.245 11.814-35.241c-7.864 2.1-16.232-1.424-20.129-8.792z" fill="#7fbae5"/><path d="m284.595 172.784c-.508.163-.718.339-.957.788l-10.463 19.677c-3.142 5.94-9.207 9.391-15.569 9.392-1.513 0-3.041-.212-4.552-.615l11.82 35.258 13.006-16.258c1.856-2.32 4.846-3.421 7.763-2.861l20.474 3.931-20.039-49.792-1.484.482z" fill="#7fbae5"/><path d="m219.791 422.37h-30.075l14.533 54.238c2.071 7.731 10.043 12.335 17.775 10.268 7.723-2.086 12.336-10.074 10.267-17.803z" fill="#7fbae5"/><path d="m241.571 409.371 84.048 41.229v-171.32l-84.048 41.229z" fill="#7fbae5"/><path d="m388.491 323.359v83.191c19.558-3.753 34.384-20.973 34.384-41.596s-14.826-37.842-34.384-41.595z" fill="#7fbae5"/><path d="m95.091 487.368h12.444c10.125 0 18.435-7.846 19.213-17.773h-50.87c.778 9.928 9.088 17.773 19.213 17.773z" fill="#7fbae5"/><path d="m135.197 430.985c-.139-.106-.28-.211-.411-.326-2.167-1.689-4.881-2.705-7.833-2.705h-51.279c-2.922 0-5.61.993-7.769 2.645-.194.173-.398.338-.61.492-2.718 2.354-4.448 5.821-4.448 9.69 0 7.057 5.754 12.798 12.827 12.798h51.279c7.057 0 12.799-5.741 12.799-12.798 0-3.926-1.773-7.441-4.554-9.796z" fill="#7fbae5"/><path d="m147.659 347.72v34.44c0 2.743 2.219 4.976 4.947 4.976h3.416v-44.362h-3.416c-2.728 0-4.947 2.219-4.947 4.946z" fill="#7fbae5"/><g fill="#3175b2"><path d="m174.695 92.343c-1.601 4.892.118 10.208 4.314 13.267l20.087 14.528-7.684 23.506c-1.644 4.929.066 10.262 4.255 13.303 4.179 3.086 9.797 3.085 13.983.011l20.03-14.6 19.998 14.576c2.099 1.555 4.55 2.333 7.002 2.333s4.889-.773 6.983-2.319c4.133-3 5.87-8.286 4.296-13.266l-7.722-23.545 20.046-14.499c4.187-2.99 5.955-8.31 4.399-13.236l-.039-.12c-1.623-4.869-6.157-8.141-11.298-8.141l-24.788.051-7.6-23.583-.013-.04c-1.603-4.886-6.135-8.169-11.279-8.169-5.144 0-9.676 3.282-11.293 8.209l-7.6 23.583-24.803-.051c-5.174 0-9.697 3.294-11.274 8.202zm39.082 7.87c5.125 0 9.66-3.271 11.307-8.217l4.581-14.216 4.606 14.291c1.623 4.87 6.157 8.142 11.298 8.142l14.928-.03-12.058 8.721c-4.187 2.99-5.955 8.311-4.372 13.321l4.655 14.194-12.034-8.772c-4.216-3.095-9.842-3.091-14.023.004l-12.046 8.781 4.672-14.291c1.556-4.927-.212-10.247-4.361-13.209l-12.096-8.749z"/><path d="m428.946 430.457c-2.21-3.831-7.109-5.144-10.938-2.933-3.831 2.211-5.144 7.108-2.933 10.938l17.064 29.565c1.483 2.569 4.175 4.006 6.943 4.006 1.358 0 2.735-.346 3.996-1.073 3.831-2.211 5.144-7.108 2.933-10.938l-17.064-29.565z"/><path d="m438.891 364.954c0-29.474-21.971-53.901-50.4-57.816v-49.191c0-17.326-14.096-31.422-31.422-31.422s-31.45 14.096-31.45 31.422v3.494l-93.914 46.069h-41.616c-12.2-38.502-47.838-64.885-88.79-64.885-51.369 0-93.161 41.792-93.161 93.161 0 25.59 10.145 49.436 28.566 67.145 8.869 8.523 13.7 14.265 16.474 19.829-3.966 4.941-6.347 11.207-6.347 18.022 0 10.092 5.225 18.983 13.11 24.131-.092 1.048-.155 2.102-.155 3.167 0 19.467 15.838 35.305 35.305 35.305h12.444c19.467 0 35.305-15.838 35.305-35.305 0-1.059-.066-2.116-.163-3.172 7.873-5.149 13.09-14.037 13.09-24.126 0-6.807-2.373-13.066-6.328-18.005 2.056-4.133 5.255-8.373 10.389-13.77 2.938 4.944 7.392 8.884 12.72 11.17l16.231 60.576c3.648 13.625 16.013 22.636 29.502 22.635 2.61 0 5.264-.338 7.903-1.045 16.247-4.389 25.926-21.171 21.578-37.41l-10.686-39.927 88.542 43.434v3.494c0 17.342 14.108 31.45 31.45 31.45s31.422-14.108 31.422-31.45v-49.162c28.429-3.915 50.4-28.343 50.4-57.817zm-331.356 122.414h-12.444c-10.125 0-18.435-7.846-19.213-17.773h50.87c-.778 9.928-9.088 17.773-19.213 17.773zm19.417-33.789h-51.279c-7.073 0-12.827-5.741-12.827-12.798 0-3.87 1.729-7.336 4.448-9.69.212-.155.416-.319.61-.492 2.159-1.651 4.847-2.645 7.769-2.645h51.279c2.952 0 5.666 1.016 7.833 2.705.131.115.272.219.411.326 2.781 2.355 4.554 5.87 4.554 9.796 0 7.057-5.742 12.798-12.799 12.798zm29.069-66.443h-3.416c-2.728 0-4.947-2.232-4.947-4.976v-34.44c0-2.728 2.219-4.946 4.947-4.946h3.416zm1.201-60.378h-4.616c-11.559 0-20.962 9.403-20.962 20.962v34.44c0 8.826 5.475 16.382 13.196 19.48-3.485 3.957-6.342 7.8-8.601 11.844-2.916-.997-6.037-1.546-9.286-1.546h-17.646v-52.214h7.951c4.423 0 8.008-3.585 8.008-8.008s-3.585-8.008-8.008-8.008h-31.918c-4.423 0-8.008 3.585-8.008 8.008s3.585 8.008 8.008 8.008h7.951v52.214h-17.618c-3.249 0-6.371.548-9.288 1.543-4.136-7.4-10.27-14.11-18.583-22.099-15.25-14.659-23.649-34.404-23.649-55.597 0-42.538 34.607-77.146 77.145-77.146 32.79 0 61.464 20.417 72.46 50.58-7.882 2.943-14.046 9.441-16.537 17.537zm26.026 79.597c-6.182 0-11.211-5.029-11.211-11.211v-60.378c0-6.198 5.029-11.24 11.211-11.24h42.307v82.829zm38.776 80.521c-7.732 2.067-15.704-2.536-17.775-10.268l-14.533-54.238h30.075l12.5 46.703c2.069 7.729-2.544 15.717-10.267 17.803zm103.594-36.276-84.047-41.229v-88.862l84.047-41.229v171.321zm46.856 21.333c0 8.511-6.911 15.435-15.406 15.435s-15.435-6.924-15.435-15.435v-213.987c0-8.495 6.924-15.406 15.435-15.406s15.406 6.911 15.406 15.406zm16.016-65.384v-83.191c19.558 3.753 34.384 20.972 34.384 41.595s-14.826 37.843-34.384 41.596z"/><path d="m210.801 333.079h-24.01c-4.423 0-8.008 3.585-8.008 8.008s3.585 8.008 8.008 8.008h24.01c4.423 0 8.008-3.585 8.008-8.008s-3.585-8.008-8.008-8.008z"/><path d="m200.106 28.897-22.234-.763c-9.099-.355-16.9 6.174-18.144 15.185l-3.128 22.129c-.058.441-.159.687-.588 1.026l-17.583 13.727c-7.133 5.582-8.894 15.588-4.094 23.278l11.791 18.859c.319.518.331.803.235 1.25l-4.653 21.845c-1.856 8.816 3.208 17.607 11.825 20.463l4.455 1.447-22.837 56.807c-1.699 4.187-1.173 8.562 1.406 11.705 2.549 3.106 6.686 4.464 11.067 3.621l24.342-4.674 15.436 19.264c2.349 3.001 5.618 4.672 8.996 4.672.577 0 1.157-.049 1.737-.147 4.027-.69 7.297-3.675 8.75-7.992l18.87-56.291 3.271-1.324c.502-.2.776-.2 1.25-.012l3.3 1.335 18.873 56.299c1.445 4.293 4.703 7.275 8.716 7.977.591.104 1.183.154 1.772.154 3.362 0 6.623-1.651 8.967-4.604l15.464-19.33 24.343 4.674c4.387.836 8.529-.519 11.084-3.632 2.581-3.145 3.109-7.517 1.422-11.673l-22.871-56.83 4.497-1.461c8.572-2.841 13.636-11.632 11.776-20.467l-4.649-21.83c-.093-.435-.082-.695.238-1.205l11.791-18.905c4.797-7.687 3.036-17.691-4.105-23.28l-17.533-13.687c-.38-.301-.553-.527-.64-1.135l-3.115-22.026c-1.247-9.038-9.019-15.563-18.1-15.214l-22.266.764c-.55.021-.805-.073-1.178-.407l-16.554-14.938c-.01-.009-.021-.019-.031-.027-6.752-6.029-16.905-6.021-23.62.023l-16.57 14.927c-.39.351-.654.431-1.181.424zm-5.643 208.369-13.016-16.245c-1.856-2.317-4.845-3.42-7.759-2.857l-20.447 3.926 20.015-49.787 1.525.496c.445.142.65.279.915.778l10.452 19.656c3.896 7.368 12.264 10.892 20.129 8.792zm111.654-15.172-20.474-3.931c-2.917-.56-5.907.541-7.763 2.861l-13.006 16.258-11.82-35.258c1.511.403 3.039.615 4.552.615 6.362 0 12.427-3.451 15.569-9.392l10.463-19.677c.238-.449.448-.625.957-.788l1.484-.482 20.039 49.792zm-77.543-196.646c.646-.579 1.561-.576 2.226.013l16.55 14.935c3.458 3.102 7.757 4.665 12.425 4.508l22.327-.767c.822 0 1.522.554 1.642 1.425l3.12 22.065c.659 4.609 2.926 8.565 6.6 11.473l17.567 13.714c.689.539.846 1.437.38 2.183l-11.779 18.887c-2.495 3.972-3.299 8.483-2.326 13.042l4.645 21.808c.178.849-.304 1.667-1.102 1.932l-12.224 3.971c-.236.064-.47.142-.703.228l-8.257 2.682c-4.461 1.436-7.979 4.381-10.172 8.512l-10.468 19.688c-.407.769-1.262 1.072-2.078.744l-20.694-8.374c-2.152-.861-4.364-1.292-6.581-1.292s-4.452.434-6.625 1.304l-20.665 8.362c-.815.331-1.67.024-2.086-.76l-10.458-19.668c-2.207-4.155-5.733-7.103-10.154-8.51l-8.298-2.695c-.224-.083-.448-.157-.674-.219l-12.187-3.959c-.842-.279-1.324-1.098-1.15-1.928l4.648-21.822c.965-4.524.184-9.015-2.289-13.032l-11.817-18.902c-.465-.744-.308-1.642.374-2.175l17.618-13.753c3.688-2.92 5.96-6.906 6.559-11.451l3.122-22.08c.117-.844.791-1.443 1.686-1.396l22.294.766c4.657.145 8.955-1.407 12.424-4.521l16.58-14.936z"/><path d="m443.078 259.401c-3.83-2.211-8.728-.898-10.938 2.933l-17.064 29.565c-2.211 3.83-.898 8.728 2.933 10.938 1.261.728 2.637 1.073 3.996 1.073 2.768 0 5.46-1.437 6.943-4.006l17.064-29.565c2.211-3.83.898-8.728-2.933-10.938z"/><path d="m210.801 356.946h-24.01c-4.423 0-8.008 3.585-8.008 8.008s3.585 8.008 8.008 8.008h24.01c4.423 0 8.008-3.585 8.008-8.008s-3.585-8.008-8.008-8.008z"/><path d="m444.36 329.192c1.484 2.567 4.174 4.001 6.94 4.001 1.36 0 2.739-.347 4.001-1.076l29.565-17.094c3.829-2.214 5.138-7.112 2.924-10.94-2.214-3.831-7.113-5.137-10.941-2.925l-29.565 17.094c-3.829 2.214-5.138 7.112-2.924 10.94z"/><path d="m484.861 415.307-29.565-17.064c-3.83-2.211-8.728-.898-10.938 2.933-2.211 3.83-.898 8.728 2.933 10.938l29.565 17.064c1.261.728 2.637 1.073 3.996 1.073 2.768 0 5.46-1.437 6.943-4.006 2.211-3.83.898-8.728-2.933-10.938z"/><path d="m496.137 357.173h-34.129c-4.423 0-8.008 3.585-8.008 8.008s3.585 8.008 8.008 8.008h34.129c4.423 0 8.008-3.585 8.008-8.008s-3.585-8.008-8.008-8.008z"/></g></svg>