<svg id="Calendar_and_date" height="512" viewBox="0 0 64 64" width="512" xmlns="http://www.w3.org/2000/svg" data-name="Calendar and date"><g fill="#78b9eb"><path d="m52 44h5v4h-5z"/><path d="m52 40h5v4h-5z"/><path d="m47 44h5v4h-5z"/><path d="m42 44h5v4h-5z"/><path d="m37 44h5v4h-5z"/><path d="m29 44h8v4h-8z"/><path d="m29 40h8v4h-8z"/><path d="m37 40h5v4h-5z"/><path d="m42 40h5v4h-5z"/><path d="m47 40h5v4h-5z"/><path d="m52 36h5v4h-5z"/><path d="m47 36h5v4h-5z"/><path d="m42 36h5v4h-5z"/><path d="m37 36h5v4h-5z"/><path d="m29 36h8v4h-8z"/><path d="m29 32h8v4h-8z"/><path d="m37 32h5v4h-5z"/><path d="m42 32h5v4h-5z"/><path d="m47 32h5v4h-5z"/><path d="m52 32h5v4h-5z"/><path d="m52 28h5v4h-5z"/><path d="m47 28h5v4h-5z"/><path d="m42 28h5v4h-5z"/><path d="m37 28h5v4h-5z"/><path d="m29 28h8v4h-8z"/><path d="m29 18a2 2 0 0 0 4 0h20a2 2 0 0 0 4 0h2a2.006 2.006 0 0 1 2 2v4h-36v-4a2.006 2.006 0 0 1 2-2z"/><path d="m25 24v26a2.012 2.012 0 0 0 1.05 1.76l-.05.24h-21a2.006 2.006 0 0 1 -2-2v-40a2.006 2.006 0 0 1 2-2h9.18a2.772 2.772 0 0 0 -.18 1 3 3 0 0 0 3 3h14a3 3 0 0 0 3-3 2.772 2.772 0 0 0 -.18-1h9.18a2.006 2.006 0 0 1 2 2v8h-12v-1a2.015 2.015 0 0 0 -2-2 2.006 2.006 0 0 0 -2 2v1h-2a2.006 2.006 0 0 0 -2 2zm-12 19v-4a1 1 0 0 0 -1-1h-4a1 1 0 0 0 -1 1v4a1 1 0 0 0 1 1h4a1 1 0 0 0 1-1zm0-10v-4a1 1 0 0 0 -1-1h-4a1 1 0 0 0 -1 1v4a1 1 0 0 0 1 1h4a1 1 0 0 0 1-1zm0-10v-4a1 1 0 0 0 -1-1h-4a1 1 0 0 0 -1 1v4a1 1 0 0 0 1 1h4a1 1 0 0 0 1-1z"/></g><path d="m12 17h-4a2 2 0 0 0 -2 2v4a2 2 0 0 0 2 2h4a2 2 0 0 0 2-2v-4a2 2 0 0 0 -2-2zm-4 6v-4h4v4z" fill="#006df0"/><path d="m12 27h-4a2 2 0 0 0 -2 2v4a2 2 0 0 0 2 2h4a2 2 0 0 0 2-2v-4a2 2 0 0 0 -2-2zm-4 6v-4h4v4z" fill="#006df0"/><path d="m12 37h-4a2 2 0 0 0 -2 2v4a2 2 0 0 0 2 2h4a2 2 0 0 0 2-2v-4a2 2 0 0 0 -2-2zm-4 6v-4h4v4z" fill="#006df0"/><path d="m59 17h-1a3 3 0 0 0 -6 0h-6v-7a3.009 3.009 0 0 0 -3-3h-8.56a3.98 3.98 0 0 0 -3.44-2h-1.81a5.989 5.989 0 0 0 -10.38 0h-1.81a3.98 3.98 0 0 0 -3.44 2h-8.56a3.009 3.009 0 0 0 -3 3v40a3.009 3.009 0 0 0 3 3h54a3.009 3.009 0 0 0 3-3v-30a3.009 3.009 0 0 0 -3-3zm-5 0a1 1 0 0 1 2 0v1a1 1 0 0 1 -2 0zm-37-10h2.42a1.011 1.011 0 0 0 .92-.6 3.991 3.991 0 0 1 7.32 0 1.011 1.011 0 0 0 .92.6h2.42a2 2 0 0 1 0 4h-14a2 2 0 0 1 0-4zm7.18 44h-19.18a1 1 0 0 1 -1-1v-40a1 1 0 0 1 1-1h8a4 4 0 0 0 4 4h14a4 4 0 0 0 4-4h8a1 1 0 0 1 1 1v7h-10a3 3 0 0 0 -6 0h-1a3.009 3.009 0 0 0 -3 3v30a3 3 0 0 0 .18 1zm7.82-34v1a1 1 0 0 1 -2 0v-1a1 1 0 0 1 2 0zm28 33a1 1 0 0 1 -1 1h-32a1 1 0 0 1 -1-1v-25h34zm0-27h-34v-3a1 1 0 0 1 1-1h1.18a2.988 2.988 0 0 0 5.64 0h18.36a2.988 2.988 0 0 0 5.64 0h1.18a1 1 0 0 1 1 1z" fill="#006df0"/><path d="m57 27h-28a1 1 0 0 0 -1 1v20a1 1 0 0 0 1 1h28a1 1 0 0 0 1-1v-20a1 1 0 0 0 -1-1zm-21 20h-6v-2h6zm0-4h-6v-2h6zm0-4h-6v-2h6zm0-4h-6v-2h6zm0-4h-6v-2h6zm5 16h-3v-2h3zm0-4h-3v-2h3zm0-4h-3v-2h3zm0-4h-3v-2h3zm0-4h-3v-2h3zm5 16h-3v-2h3zm0-4h-3v-2h3zm0-4h-3v-2h3zm0-4h-3v-2h3zm0-4h-3v-2h3zm5 16h-3v-2h3zm0-4h-3v-2h3zm0-4h-3v-2h3zm0-4h-3v-2h3zm0-4h-3v-2h3zm5 16h-3v-2h3zm0-4h-3v-2h3zm0-4h-3v-2h3zm0-4h-3v-2h3zm0-4h-3v-2h3z" fill="#006df0"/><circle cx="24" cy="8" fill="#006df0" r="2"/><path d="m16 18h7v2h-7z" fill="#006df0"/><path d="m16 22h2v2h-2z" fill="#006df0"/><path d="m20 22h3v2h-3z" fill="#006df0"/><path d="m16 28h7v2h-7z" fill="#006df0"/><path d="m16 32h2v2h-2z" fill="#006df0"/><path d="m20 32h3v2h-3z" fill="#006df0"/><path d="m16 38h7v2h-7z" fill="#006df0"/><path d="m16 42h2v2h-2z" fill="#006df0"/><path d="m20 42h3v2h-3z" fill="#006df0"/></svg>