<svg id="Capa_1" enable-background="new 0 0 497 497" height="512" viewBox="0 0 497 497" width="512" xmlns="http://www.w3.org/2000/svg"><g><path d="m452.56 181.37v262.79c0 14-11.35 25.34-25.35 25.34h-401.87c-13.99 0-25.34-11.34-25.34-25.34v-262.79l234.49-13.78 103.71 6.55z" fill="#8d9ca8"/><path d="m452.56 181.37v262.79c0 14-11.35 25.34-25.35 25.34h-51.93c14 0 25.34-11.34 25.34-25.34v-240.12c-6.92 1.72-14.15 2.63-21.6 2.63-24.25 0-46.25-9.64-62.39-25.3l21.57-7.23z" fill="#7a8c98"/><path d="m452.56 117.083v64.29h-452.56v-38.95c0-13.99 11.35-25.34 25.34-25.34z" fill="#6c7fd8"/><path d="m452.56 117.083v51.17c-3.29 4.73-7.03 9.13-11.16 13.12h-124.77c-16.78-16.27-27.21-39.06-27.21-64.29z" fill="#4f66d0"/><path d="m491.42 117.09 5.27 7.49c-3.12 37.74-29.64 68.84-65.01 78.77l-24.27-1.28-25.71.86c-34.65-10.36-60.49-41.12-63.57-78.35l6.61-7.49-6.61-7.51c3.09-37.22 28.93-67.98 63.57-78.33l25.71 2.22 2.97-.32 21.3-2.32c35.36 9.92 61.88 41.02 65.01 78.75z" fill="#62dbfb"/><path d="m491.42 117.09 5.27 7.49c-3.12 37.74-29.64 68.84-65.01 78.77l-24.27-1.28c35.57-11.87 61.2-45.43 61.2-84.98 0-38.45-24.21-71.24-58.23-83.94l21.3-2.32c35.36 9.92 61.88 41.02 65.01 78.75z" fill="#01d0fb"/><g><g><path d="m175.231 376.343-40.619-40.619c-5.077-5.077-5.077-13.308 0-18.385l40.619-40.619c5.077-5.077 13.308-5.077 18.385 0 5.077 5.077 5.077 13.308 0 18.385l-26.58 26.58c-2.677 2.677-2.677 7.017 0 9.693l26.58 26.58c5.077 5.077 5.077 13.308 0 18.385-5.077 5.077-13.308 5.077-18.385 0z" fill="#c8effe"/></g><g><path d="m354.264 376.343c-5.077-5.077-5.077-13.308 0-18.385l26.58-26.58c2.677-2.677 2.677-7.017 0-9.693l-26.58-26.58c-5.077-5.077-5.077-13.308 0-18.385 5.077-5.077 13.308-5.077 18.385 0l40.619 40.619c5.077 5.077 5.077 13.308 0 18.385l-40.619 40.619c-5.077 5.077-13.308 5.077-18.385 0z" fill="#c8effe"/></g><path d="m413.268 317.339-12.644-12.644v43.674l12.644-12.644c5.076-5.078 5.076-13.309 0-18.386z" fill="#99e6fc"/><g><path d="m325.344 254.394-68.283 147.475c-1.992 4.303-6.303 7.058-11.045 7.058h-14.579c-5.275 0-8.771-5.471-6.554-10.258l68.283-147.475c1.992-4.303 6.303-7.058 11.045-7.058h14.579c5.274.001 8.77 5.471 6.554 10.258z" fill="#a2e62e"/></g><path d="m318.789 244.137h-14.579c-.771 0-1.528.08-2.268.22 4.245 1.054 6.746 5.809 4.789 10.037l-68.283 147.475c-1.669 3.604-4.965 6.114-8.777 6.837.561.139 1.15.22 1.765.22h14.579c4.742 0 9.053-2.754 11.045-7.058l68.283-147.475c2.217-4.786-1.279-10.256-6.554-10.256z" fill="#95ce25"/></g><path d="m496.69 109.58h-36.78c-.65-16.33-3.43-31.41-7.84-44.36-4.95-14.59-11.98-26.48-20.39-34.39-7.72-2.17-15.86-3.33-24.27-3.33-4.83 0-9.57.38-14.19 1.12h-.01c-3.93.63-7.77 1.51-11.51 2.63-15.63 15.07-26.41 43.94-27.78 78.33h-35.79c-.21 2.47-.31 4.98-.31 7.51 0 2.52.1 5.02.31 7.49h35.79c1.37 34.4 12.15 63.28 27.78 78.35 3.74 1.12 7.58 2 11.51 2.63 4.62.74 9.37 1.12 14.2 1.12 8.41 0 16.55-1.16 24.27-3.33 8.42-7.92 15.45-19.82 20.41-34.43 4.4-12.94 7.17-28.02 7.82-44.34h36.78c.21-2.47.31-4.97.31-7.49 0-2.53-.1-5.04-.31-7.51zm-81.78 87.55v-72.55h29.97c-.87 19.92-5.18 38.32-12.38 52.45-5.06 9.95-11.21 16.88-17.59 20.1zm0-87.55v-72.54c6.38 3.22 12.53 10.15 17.59 20.1 7.2 14.13 11.51 32.53 12.38 52.44zm-33.59-52.44c5.33-10.46 11.86-17.6 18.59-20.58v73.02h-30.97c.87-19.91 5.19-38.31 12.38-52.44zm0 119.89c-7.19-14.13-11.51-32.53-12.38-52.45h30.97v73.03c-6.73-2.98-13.26-10.11-18.59-20.58z" fill="#c8effe"/><g fill="#99e6fc"><path d="m393.22 28.62c4.62-.74 9.36-1.12 14.19-1.12 8.41 0 16.55 1.16 24.27 3.33 8.41 7.91 15.44 19.8 20.39 34.39-13.63-19.17-34.62-32.74-58.85-36.6z"/><path d="m452.09 168.92c-4.96 14.61-11.99 26.51-20.41 34.43-7.72 2.17-15.86 3.33-24.27 3.33-4.83 0-9.58-.38-14.2-1.12v-.01c24.25-3.86 45.25-17.44 58.88-36.63z"/><path d="m497 117.09c0 2.52-.1 5.02-.31 7.49h-28.39c.21-2.47.31-4.97.31-7.49 0-2.53-.1-5.03-.32-7.51h28.4c.21 2.47.31 4.98.31 7.51z"/></g><g><circle cx="42.647" cy="149.229" fill="#ed74b7" r="7.499"/><circle cx="72.649" cy="149.229" fill="#c8effe" r="7.499"/></g><g><g><path d="m184.442 428.793h-40.594c-4.142 0-7.5-3.358-7.5-7.5s3.358-7.5 7.5-7.5h40.594c4.142 0 7.5 3.358 7.5 7.5s-3.358 7.5-7.5 7.5z" fill="#7a8c98"/></g><g><path d="m184.443 238.769h-141.795c-4.142 0-7.5-3.358-7.5-7.5s3.358-7.5 7.5-7.5h141.795c4.142 0 7.5 3.358 7.5 7.5s-3.358 7.5-7.5 7.5z" fill="#7a8c98"/></g><g><path d="m108.723 276.773h-66.075c-4.142 0-7.5-3.358-7.5-7.5s3.358-7.5 7.5-7.5h66.076c4.142 0 7.5 3.358 7.5 7.5s-3.359 7.5-7.501 7.5z" fill="#7a8c98"/></g><g><path d="m69.121 314.778h-26.473c-4.142 0-7.5-3.358-7.5-7.5s3.358-7.5 7.5-7.5h26.473c4.142 0 7.5 3.358 7.5 7.5s-3.358 7.5-7.5 7.5z" fill="#7a8c98"/></g><g><path d="m69.121 352.783h-26.473c-4.142 0-7.5-3.358-7.5-7.5s3.358-7.5 7.5-7.5h26.473c4.142 0 7.5 3.358 7.5 7.5s-3.358 7.5-7.5 7.5z" fill="#7a8c98"/></g><g><path d="m108.723 390.788h-66.075c-4.142 0-7.5-3.358-7.5-7.5s3.358-7.5 7.5-7.5h66.076c4.142 0 7.5 3.358 7.5 7.5s-3.359 7.5-7.501 7.5z" fill="#7a8c98"/></g><g><path d="m108.723 428.793h-66.075c-4.142 0-7.5-3.358-7.5-7.5s3.358-7.5 7.5-7.5h66.076c4.142 0 7.5 3.358 7.5 7.5s-3.359 7.5-7.501 7.5z" fill="#7a8c98"/></g></g></g></svg>