<svg height="512" viewBox="0 0 128 128" width="512" xmlns="http://www.w3.org/2000/svg"><g id="Layer_2" data-name="Layer 2"><path d="m111.001 116h-96.001l16-37.999h64.001z" fill="#f0f0ff"/><path d="m36.3877 81.0007h53.2256a10.25 10.25 0 0 1 8.6032 4.6372l-3.2157-7.6372h-64.0008l-3.2158 7.6372a10.25 10.25 0 0 1 8.6035-4.6372z" fill="#fff"/><path d="m100.68 91.4876a16.0179 16.0179 0 0 1 -15.9428 17.5124h-43.4735a16.018 16.018 0 0 1 -15.9424-17.5124l-10.3213 24.5124h96.0009z" fill="#dcdcf9"/><path d="m33.64 85.6763-10.64 30.3237h80.0007l-10.64-30.3238a4 4 0 0 0 -3.7745-2.6756h-51.1715a4 4 0 0 0 -3.7747 2.6757z" fill="#a9d1f7"/><path d="m98.0439 101.8732a15.84 15.84 0 0 1 -13.3067 7.1268h-43.4735a15.84 15.84 0 0 1 -13.3067-7.127l-4.957 14.127h80.0007z" fill="#8dc1f3"/><path d="m75.0006 116h-24.0006l3.0883-9.2647a4 4 0 0 1 3.7952-2.7353h10.234a4 4 0 0 1 3.7947 2.7351z" fill="#f0f0ff"/><path d="m71.9122 106.7353a3.9886 3.9886 0 0 0 -2.2988-2.4322c.0227.0689.0515.1332.0709.2044l1.6273 5.9665a2 2 0 0 1 -1.9296 2.526h-12.7631a2 2 0 0 1 -1.9295-2.5262l1.6272-5.9665c.0194-.0712.0482-.1355.071-.2044a3.9888 3.9888 0 0 0 -2.2989 2.4322l-3.0887 9.2649h24z" fill="#dcdcf9"/><path d="m15 116h96.0009a0 0 0 0 1 0 0v4a4 4 0 0 1 -4 4h-88.0009a4 4 0 0 1 -4-4v-4a0 0 0 0 1 0 0z" fill="#f0f0ff"/><path d="m107.0009 116v1a4 4 0 0 1 -4 4h-80.0009a4 4 0 0 1 -4-4v-1h-4v4a4 4 0 0 0 4 4h88.0009a4 4 0 0 0 4-4v-4z" fill="#dcdcf9"/><path d="m35 36.0014h56.0008a4 4 0 0 1 4 4v37.9993a0 0 0 0 1 0 0h-64.0008a0 0 0 0 1 0 0v-37.9993a4 4 0 0 1 4-4z" fill="#dcdcf9"/><path d="m91.0007 38.0014h-2.2181c-.1419.1748-.2848.3489-.4381.5155a2.0119 2.0119 0 0 0 -.3 2.3507l3.6755 6.5565a6.0066 6.0066 0 0 1 -5.2183 8.94 6.1672 6.1672 0 0 1 -.8789-.0635 33.4449 33.4449 0 0 0 -15.1608 1.2724l-2.04.6625a2 2 0 0 0 -1.1265 2.8806l4.005 7.14a4.873 4.873 0 0 1 -.9414 6.08 4.7856 4.7856 0 0 1 -3.0926 1.1428 4.7077 4.7077 0 0 1 -3.629-1.6992l-6.8925-8.2419a2.0064 2.0064 0 0 0 -2.3205-.554 9.824 9.824 0 0 1 -6.436.4522 9.9848 9.9848 0 0 1 -5.57-3.7863 1.9474 1.9474 0 0 0 -1.8551-.7925 5.9974 5.9974 0 0 1 -6.0537-3.01l-.8674-1.55a7.02 7.02 0 0 1 -.6423-1.5515v23.255h60.0008v-37.9994a2.0026 2.0026 0 0 0 -2.0001-1.9999z" fill="#f0f0ff"/><path d="m79.7206 38.9913q-.09-.495-.21-.99h.36q-.06.495-.15.99z" fill="#8dc1f3"/><g fill="#f0f0ff"><path d="m54.7912 88.1758-.534 3a1 1 0 0 1 -.9846.8247h-4.2415a1 1 0 0 1 -.97-1.2425l.75-3a1 1 0 0 1 .97-.7574h4.0256a1 1 0 0 1 .9845 1.1752z"/><path d="m43.6356 88.2755-.858 3a1 1 0 0 1 -.9614.725h-4.0534a1 1 0 0 1 -.9519-1.3065l.966-3a1 1 0 0 1 .9519-.6935h3.9454a1 1 0 0 1 .9614 1.275z"/><path d="m65.5585 92.0005h-5.116a1 1 0 0 1 -.99-1.1406l.426-3a1 1 0 0 1 .99-.8594h4.264a1 1 0 0 1 .99.8594l.4261 3a1 1 0 0 1 -.9901 1.1406z"/><path d="m77.1045 92.0005h-4.3762a1 1 0 0 1 -.9845-.8247l-.5341-3a1 1 0 0 1 .9846-1.1752h4.0522a1 1 0 0 1 .9615.725l.858 3a1 1 0 0 1 -.9615 1.2749z"/><path d="m88.2381 92.0005h-4.0533a1 1 0 0 1 -.9615-.725l-.858-3a1 1 0 0 1 .9615-1.2749h3.9453a1 1 0 0 1 .9519.6935l.966 3a1 1 0 0 1 -.9519 1.3064z"/><path d="m90.8082 100h-4.3419a1 1 0 0 1 -.962-.7268l-.852-3a1 1 0 0 1 .9619-1.2732h4.228a1 1 0 0 1 .9518.6935l.966 3a1 1 0 0 1 -.9518 1.3065z"/><path d="m79.3871 100h-5.2288a1 1 0 0 1 -.9845-.8247l-.5341-3a1 1 0 0 1 .9846-1.1752h4.9108a1 1 0 0 1 .9619.7268l.8521 3a1 1 0 0 1 -.962 1.2731z"/><path d="m66.7062 100h-7.4114a1 1 0 0 1 -.99-1.1425l.4319-3a1 1 0 0 1 .99-.8574h6.5475a1 1 0 0 1 .99.8574l.432 3a1 1 0 0 1 -.99 1.1425z"/><path d="m53.3612 96.1757-.534 3a1 1 0 0 1 -.9846.8247h-4.8115a1 1 0 0 1 -.97-1.2425l.75-3a1 1 0 0 1 .97-.7574h4.5956a1 1 0 0 1 .9845 1.1752z"/><path d="m41.3487 96.2737-.8521 3a1 1 0 0 1 -.9619.7268h-4.3419a1 1 0 0 1 -.9519-1.3065l.966-3a1 1 0 0 1 .9519-.6935h4.2279a1 1 0 0 1 .962 1.2732z"/></g><path d="m111.9228 115.6125-.0014-.0032-15.9206-37.8107v-37.7973a5.0059 5.0059 0 0 0 -5-5h-56.0008a5.0058 5.0058 0 0 0 -5 5v37.7973l-15.9206 37.8108-.0012.0027a1.09 1.09 0 0 0 -.0782.3879v4a5.0058 5.0058 0 0 0 5 5h88.0009a5.0058 5.0058 0 0 0 5-5v-4a1.09 1.09 0 0 0 -.0781-.3875zm-79.9228-75.6112a3.0033 3.0033 0 0 1 3-3h56a3.0033 3.0033 0 0 1 3 3v36.9994h-62zm-.336 38.9994h62.6727l15.1584 36h-5.7851l-10.4055-29.6554a5.0057 5.0057 0 0 0 -4.7179-3.3446h-51.1723a5.0055 5.0055 0 0 0 -4.7178 3.3446l-10.4051 29.6547h-5.7855zm44.057 35.9993-2.86-8.581a4.9936 4.9936 0 0 0 -4.7433-3.419h-10.2345a4.9937 4.9937 0 0 0 -4.7432 3.4189l-2.86 8.5811h-25.87l10.1732-28.9926a3.0057 3.0057 0 0 1 2.8311-2.0068h51.1723a3.0056 3.0056 0 0 1 2.8311 2.0068l10.173 28.9926zm-2.1081 0h-21.2248l2.6484-7.9482a2.9981 2.9981 0 0 1 2.8467-2.0518h10.2345a2.998 2.998 0 0 1 2.8467 2.0517zm33.388 8h-88.0009a3.0033 3.0033 0 0 1 -3-3v-3h94.0009v3a3.0033 3.0033 0 0 1 -3 3zm-53.1939-36.9994h-4.0254a1.9966 1.9966 0 0 0 -1.94 1.5156l-.7509 3a2.0008 2.0008 0 0 0 1.9414 2.4843h4.2412a1.9979 1.9979 0 0 0 1.9688-1.6494l.5342-3v-.0011a2 2 0 0 0 -1.9688-2.35zm-.5342 5h-4.2422l.751-3 4.0254-.002zm-10.5987-5h-3.9453a1.9976 1.9976 0 0 0 -1.9044 1.3867l-.9658 3a2 2 0 0 0 1.9043 2.6132h4.0528a2.0084 2.0084 0 0 0 1.9229-1.4492l.8584-3 .0009-.001a2.0013 2.0013 0 0 0 -1.9238-2.55zm-.8584 5h-4.0528l.9659-3 3.9463-.002zm18.6271 2h5.1153a1.9991 1.9991 0 0 0 1.9805-2.2812l-.4258-3.0009a2.01 2.01 0 0 0 -1.98-1.7178h-4.2642a2.01 2.01 0 0 0 -1.98 1.7187l-.4258 2.999a1.9993 1.9993 0 0 0 1.98 2.2822zm.4258-5h4.2637l.4278 3h-5.1173zm16.2355 5a2.0005 2.0005 0 0 0 1.9229-2.5506l-.8574-2.998a2.0072 2.0072 0 0 0 -1.9229-1.4512h-4.0528a2 2 0 0 0 -1.9688 2.3506l.5342 2.9989a1.9979 1.9979 0 0 0 1.9688 1.65zm-.8574-5 .86 3-4.3786-.0006-.5342-2.999zm11.9913 5a2 2 0 0 0 1.9043-2.6132l-.9668-3.0019a1.996 1.996 0 0 0 -1.9033-1.3848h-3.9454a2 2 0 0 0 -1.9228 2.5508l.8584 3.0009a2.0085 2.0085 0 0 0 1.9228 1.4482zm-4.9112-5h3.9454l.9687 3h-4.0566zm9.3859 10.3865-.9668-2.9989a1.9937 1.9937 0 0 0 -1.9034-1.3877h-4.2285a2.0009 2.0009 0 0 0 -1.924 2.5468l.8526 3a2.008 2.008 0 0 0 1.9239 1.4527h4.3418a2.0014 2.0014 0 0 0 1.9044-2.6133zm-6.2462.6129-.8525-3h4.2275l.97 3zm-6.0079-3.5468a2.0078 2.0078 0 0 0 -1.9238-1.4531h-4.91a1.9981 1.9981 0 0 0 -1.9688 2.35l.5332 3a1.9983 1.9983 0 0 0 1.97 1.65h5.2285a2.001 2.001 0 0 0 1.9239-2.5469zm-6.3008 3.5468-.5332-3h4.91l.8555 3zm-5.9044-3.2861a2.0111 2.0111 0 0 0 -1.98-1.7138h-6.5464a2.013 2.013 0 0 0 -1.98 1.7148l-.4316 3a2.001 2.001 0 0 0 1.979 2.2851h7.4122a2.0012 2.0012 0 0 0 1.98-2.2851zm-8.958 3.2861.4316-3h6.5469l.4346 3zm-6.9191-5h-4.5947a1.9965 1.9965 0 0 0 -1.94 1.5156l-.751 3a2.001 2.001 0 0 0 1.941 2.4844h4.8106a1.9982 1.9982 0 0 0 1.97-1.65l.5332-2.999a1.9983 1.9983 0 0 0 -1.9688-2.35zm0 1.999v.001l-.5341 3h-4.8116l.751-3 4.5947-.003zm-11.9893-1.9985h-4.2286a1.9939 1.9939 0 0 0 -1.9033 1.3867l-.9668 3.0009a2.0009 2.0009 0 0 0 1.9043 2.6119h4.3418a2.0082 2.0082 0 0 0 1.9239-1.4531l.8525-3v-.001a2.0005 2.0005 0 0 0 -1.9238-2.5458zm-.8526 5h-4.3418l.9658-3 4.2286-.002z" fill="#1b4a99"/><path d="m38.1409 48.5316h2a0 0 0 0 1 0 0v10a0 0 0 0 1 0 0h-2a4 4 0 0 1 -4-4v-2a4 4 0 0 1 4-4z" fill="#f0f0ff" transform="matrix(.872 -.489 .489 .872 -21.43 24.992)"/><path d="m33.8345 53.6651a3.96 3.96 0 0 0 .2.4608l.9778 1.7447a4 4 0 0 0 5.4451 1.5337l1.7446-.9778-1.4662-2.6165-1.7447.9778a3.9871 3.9871 0 0 1 -5.1566-1.1227z" fill="#dcdcf9"/><circle cx="79.014" cy="30.064" fill="#a9d1f7" r="9"/><path d="m80.224 21.1561a8.9861 8.9861 0 0 1 -6.994 15.7939 8.9942 8.9942 0 1 0 6.994-15.7939z" fill="#8dc1f3"/><path d="m45.5452 32.42h13a0 0 0 0 1 0 0v30a0 0 0 0 1 0 0h-13a8 8 0 0 1 -8-8v-14a8 8 0 0 1 8-8z" fill="#a9d1f7" transform="matrix(.872 -.489 .489 .872 -17.05 29.543)"/><path d="m40.3524 55.1707 1.9556 3.4893a8 8 0 0 0 10.89 3.0674l11.3405-6.3557-1.9557-3.4893-11.34 6.3557a8 8 0 0 1 -10.8904-3.0674z" fill="#8dc1f3"/><path d="m84.6646 53.3168a35.4893 35.4893 0 0 0 -16.0656 1.3574l-6.6774 2.1642-14.6673-26.17 5.3313-4.5659a35.4878 35.4878 0 0 0 9.5431-12.9949 4 4 0 0 1 7.1669-.3823l19.4358 34.6779a4 4 0 0 1 -4.0668 5.9136z" fill="#f0f0ff"/><path d="m63.04 11.7909 5.697 10.1648a23.0958 23.0958 0 0 1 -8.7723 31.3913l1.9568 3.4914 6.6774-2.1643a35.4906 35.4906 0 0 1 16.0656-1.3573 4 4 0 0 0 4.0668-5.9137l-19.4357-34.6775a4.0029 4.0029 0 0 0 -6.2556-.9347z" fill="#dcdcf9"/><path d="m67.3605 72.1314a2.7324 2.7324 0 0 1 -3.4324-.6314l-8.9853-10.75 6.9787-3.9112 6.4867 11.5737a2.7323 2.7323 0 0 1 -1.0477 3.7189z" fill="#f0f0ff"/><path d="m60.572 63.7489a2 2 0 0 1 .5567-3.0272l2.26-1.2663-1.4668-2.617-6.9791 3.9116 8.9853 10.75a2.7324 2.7324 0 0 0 3.4324.6313c.05-.0279.09-.0656.1372-.0961z" fill="#dcdcf9"/><path d="m89.6033 46.9143-4.8583-8.6684a9.9429 9.9429 0 0 0 2.992-13.07 10.0566 10.0566 0 0 0 -12.7115-4.2713l-4.858-8.668a5 5 0 0 0 -8.9581.4785 34.685 34.685 0 0 1 -9.2745 12.6288l-5.2567 4.5017-8.637 4.8409a9.0106 9.0106 0 0 0 -3.45 12.2508l.4887.8718a5.0065 5.0065 0 0 0 -1.916 6.8066l.9775 1.7441a5.0023 5.0023 0 0 0 6.8059 1.9173l.4891.8727a8.942 8.942 0 0 0 5.4112 4.2626 9.0623 9.0623 0 0 0 2.4531.3408 8.9538 8.9538 0 0 0 4.3862-1.1532l1.02-.5718 8.4536 10.1137a3.732 3.732 0 0 0 4.6885.8622h.001a3.7363 3.7363 0 0 0 1.43-5.0809l-5.89-10.51 5.5178-1.7881a34.7139 34.7139 0 0 1 15.6122-1.3193 4.9992 4.9992 0 0 0 5.0831-7.3915zm-3.61-20.76a7.96 7.96 0 0 1 -2.2272 10.3447l-7.76-13.8455a8.0507 8.0507 0 0 1 9.9868 3.5004zm-48.3046 30.6485a2.9811 2.9811 0 0 1 -1.8037-1.4218l-.9776-1.7441a3.0043 3.0043 0 0 1 1.1495-4.084l3.9118 6.98a2.9871 2.9871 0 0 1 -2.28.2699zm15.02 4.0527a7.0012 7.0012 0 0 1 -9.5287-2.6845l-6.8448-12.2127a7.008 7.008 0 0 1 2.6848-9.5283l7.8511-4.4 13.6889 24.4247zm14.1629 10.4045a1.7337 1.7337 0 0 1 -2.1758-.4013l-8.213-9.8251 5.0548-2.8338 5.9981 10.7019a1.7351 1.7351 0 0 1 -.6641 2.3583zm20.843-20.2008a2.9386 2.9386 0 0 1 -2.9053 1.2685 36.6764 36.6764 0 0 0 -16.5187 1.3955l-5.8976 1.9107-13.8653-24.7389 4.708-4.0321a36.7041 36.7041 0 0 0 9.8116-13.3612 3 3 0 0 1 5.3761-.2871l19.4357 34.6782a2.9432 2.9432 0 0 1 -.1445 3.166z" fill="#1b4a99"/><path d="m23.5767 10.8188a9.9978 9.9978 0 1 1 12.0268 14.8368 10.0294 10.0294 0 0 0 .1108 5.9716l-.0093-.0034a9.9592 9.9592 0 0 1 -3.8489-5.2515 9.9948 9.9948 0 0 1 -8.2794-15.5535z" fill="#a9d1f7"/><path d="m32.7755 8.0018a10 10 0 0 0 -9.1893 13.944 9.9953 9.9953 0 1 1 17.4593-9.565 9.9886 9.9886 0 0 0 -8.27-4.379z" fill="#8dc1f3"/><path d="m29.7755 24.0016a9.9889 9.9889 0 0 0 8.4212-15.3787 9.9933 9.9933 0 0 1 -2.5932 17.0327 10.0294 10.0294 0 0 0 .1108 5.9716l-.0093-.0034a9.9592 9.9592 0 0 1 -3.8489-5.2515 9.9737 9.9737 0 0 1 -8.3931-4.618 9.9555 9.9555 0 0 0 6.3125 2.2473z" fill="#8dc1f3"/><path d="m107.7614 5.7867a10.04 10.04 0 0 1 2.4729 13.8833 9.81 9.81 0 0 1 -13.7424 2.4982 9.9115 9.9115 0 0 1 -3.5935-4.6509 9.8063 9.8063 0 0 0 -5.8977.0034l.0035-.0092a9.8379 9.8379 0 0 1 5.2535-3.7452 9.9935 9.9935 0 0 1 1.7614-5.4813 9.81 9.81 0 0 1 13.7423-2.4983z" fill="#a9d1f7"/><path d="m105.0584 23.05a9.986 9.986 0 0 1 -4.309-18.9391 9.8211 9.8211 0 0 0 -6.73 4.1736 9.9932 9.9932 0 0 0 -1.7615 5.4817 9.8379 9.8379 0 0 0 -5.2535 3.7452l-.0035.0092a9.8066 9.8066 0 0 1 5.8978-.0034 9.9108 9.9108 0 0 0 3.5935 4.6509 9.781 9.781 0 0 0 9.9622.7709 9.8082 9.8082 0 0 1 -1.396.111z" fill="#8dc1f3"/><path d="m107.7614 5.7867a9.7516 9.7516 0 0 0 -7.1153-1.6618 9.972 9.972 0 0 1 .934 19.8023 9.8222 9.8222 0 0 0 8.6542-4.2569 10.04 10.04 0 0 0 -2.4729-13.8836z" fill="#8dc1f3"/><path d="m26.8793 17.1681 4.8017 5.0919 5.0914-4.8023a2.9995 2.9995 0 0 0 -4.1158-4.3644 2.9573 2.9573 0 0 0 -.74 1.11 2.9587 2.9587 0 0 0 -.6735-1.1514 3 3 0 1 0 -4.364 4.1163z" fill="#f0f0ff"/><path d="m35.7141 32.6274a1.006 1.006 0 0 1 -.4063-.0859 1.1956 1.1956 0 0 1 -.1719-.0957 10.8778 10.8778 0 0 1 -4-5.0986 10.9953 10.9953 0 0 1 -8.3907-17.0837 10.9975 10.9975 0 1 1 13.7 16.12 8.98 8.98 0 0 0 .2178 4.9276 1.001 1.001 0 0 1 -.9492 1.3164zm-11.3068-21.2526a8.9952 8.9952 0 0 0 7.4513 13.9979 1 1 0 0 1 .9521.7031 9.0268 9.0268 0 0 0 1.3946 2.7392 11.031 11.031 0 0 1 .4385-3.4384.9981.9981 0 0 1 .5888-.6494 8.9977 8.9977 0 1 0 -10.8253-13.3524zm7.2735 11.8846a.9983.9983 0 0 1 -.7275-.3135l-4.8018-5.0917a4 4 0 0 1 5.8194-5.4892 3.9934 3.9934 0 0 1 5.6533.167 4.0037 4.0037 0 0 1 -.165 5.6533l-5.0918 4.8016a.9963.9963 0 0 1 -.6866.2725zm-2.62-10.1483a1.9972 1.9972 0 0 0 -1.4541 3.37l4.1152 4.3642 4.3642-4.1153a1.9992 1.9992 0 1 0 -2.7431-2.9091 1.9439 1.9439 0 0 0 -.49.7353 1.0324 1.0324 0 0 1 -.9648.6465 1.0009 1.0009 0 0 1 -.9248-.7012 1.9715 1.9715 0 0 0 -.4473-.7646 1.9941 1.9941 0 0 0 -1.4554-.6258z" fill="#1b4a99"/><path d="m103.7444 12.047v-2.4937a1.4886 1.4886 0 0 0 -1.481-1.4962 1.4887 1.4887 0 0 0 -1.481 1.4962 2.4811 2.4811 0 0 1 -2.4683 2.4937h-.4941v5.9849h6.2259a1.9806 1.9806 0 0 0 1.9478-1.667l.3291-1.9949a1.9888 1.9888 0 0 0 -1.9478-2.323z" fill="#f0f0ff"/><path d="m102.1044 24.9547a10.7187 10.7187 0 0 1 -6.1866-1.9678 10.884 10.884 0 0 1 -3.7647-4.6425 8.7744 8.7744 0 0 0 -4.8506.13 1 1 0 0 1 -1.23-1.3242 1.1236 1.1236 0 0 1 .1181-.2187 10.765 10.765 0 0 1 5.1046-3.9 10.984 10.984 0 0 1 1.9-5.3133 10.81 10.81 0 0 1 15.1417-2.749 11.0543 11.0543 0 0 1 2.7217 15.2683 10.8544 10.8544 0 0 1 -8.9541 4.7177zm-12.1535-8.8915a10.8186 10.8186 0 0 1 3.2461.5 1 1 0 0 1 .6377.6035 8.9111 8.9111 0 0 0 3.2325 4.1833 8.8092 8.8092 0 0 0 12.3428-2.2458 9.0479 9.0479 0 0 0 -2.2227-12.4988h-.001a8.8091 8.8091 0 0 0 -12.3429 2.246 8.9946 8.9946 0 0 0 -1.5859 4.9355.9992.9992 0 0 1 -.7178.9385 8.84 8.84 0 0 0 -2.7227 1.3388c.0451-.001.09-.001.1339-.001zm14.0959 2.9687h-6.2268a.9994.9994 0 0 1 -1-1v-5.9852a1 1 0 0 1 1-1h.4942a1.4822 1.4822 0 0 0 1.4678-1.4931 2.481 2.481 0 1 1 4.9619 0v1.5156a2.9682 2.9682 0 0 1 1.8926 1.0263 3.0048 3.0048 0 0 1 .6729 2.4365l-.3291 1.9961a2.97 2.97 0 0 1 -2.9335 2.5038zm-5.2267-2h5.2267a.9774.9774 0 0 0 .9609-.8291l.3291-1.9961a1.01 1.01 0 0 0 -.2256-.8174.9546.9546 0 0 0 -.7353-.3427h-.6319a1 1 0 0 1 -1-1v-2.493a.4812.4812 0 1 0 -.9619 0 3.4908 3.4908 0 0 1 -2.9621 3.4564z" fill="#1b4a99"/><path d="m112.8636 42.3758a9.8761 9.8761 0 1 1 -18.6915-2.549 9.9578 9.9578 0 0 0 -4.1221-4.2609l.0091-.0039a9.7516 9.7516 0 0 1 6.3225 1.1812 9.7855 9.7855 0 0 1 5.1128-2.5561 9.8846 9.8846 0 0 1 11.3692 8.1887z" fill="#a9d1f7"/><path d="m112.8636 42.3758a9.8814 9.8814 0 0 0 -11.17-8.2122 10.9949 10.9949 0 0 1 6.0424 18.6764 10.0039 10.0039 0 0 0 5.1276-10.4642z" fill="#8dc1f3"/><path d="m106.0584 52.99a9.9915 9.9915 0 0 1 -4.6146-18.79 9.7855 9.7855 0 0 0 -5.0628 2.5436 9.7512 9.7512 0 0 0 -6.3224-1.1812l-.0091.0039a9.9572 9.9572 0 0 1 4.1226 4.2609 10.0158 10.0158 0 0 0 -.7835 5.8467 9.8845 9.8845 0 0 0 11.37 8.1888 9.7792 9.7792 0 0 0 2.99-1.0287 9.8 9.8 0 0 1 -1.6902.156z" fill="#8dc1f3"/><ellipse cx="98.16" cy="44.013" fill="#f0f0ff" rx="1.975" ry="1.995"/><ellipse cx="103.096" cy="44.013" fill="#f0f0ff" rx="1.975" ry="1.995"/><ellipse cx="108.033" cy="44.013" fill="#f0f0ff" rx="1.975" ry="1.995"/><ellipse cx="103.096" cy="44.013" fill="#f0f0ff" rx="1.975" ry="1.995"/><ellipse cx="108.033" cy="44.013" fill="#f0f0ff" rx="1.975" ry="1.995"/><path d="m113.85 42.2113a10.9071 10.9071 0 0 0 -4.45-7.15 10.79 10.79 0 0 0 -13.1641.4756 10.647 10.647 0 0 0 -6.3272-.9629 1.0574 1.0574 0 0 0 -.2647.0781 1.0005 1.0005 0 0 0 -.0713 1.7929 8.8983 8.8983 0 0 1 3.49 3.4287 11.0338 11.0338 0 0 0 3.791 13.115 10.7242 10.7242 0 0 0 6.252 2.0137 10.91 10.91 0 0 0 10.7443-12.7911zm-9.2579 10.6648a8.7331 8.7331 0 0 1 -6.5772-1.5156 8.9261 8.9261 0 0 1 -3.64-5.8505 9.0267 9.0267 0 0 1 .7051-5.2655.9979.9979 0 0 0 -.0157-.8691 11.0026 11.0026 0 0 0 -2.01-2.793 8.8242 8.8242 0 0 1 2.831 1.0293.9964.9964 0 0 0 1.1827-.1426 8.7952 8.7952 0 0 1 11.17-.78 9.0092 9.0092 0 0 1 -3.6465 16.1872zm3.4414-11.8582a2.9682 2.9682 0 0 0 -2.4683 1.3259 2.96 2.96 0 0 0 -4.9365 0 2.9944 2.9944 0 1 0 0 3.338 2.9611 2.9611 0 0 0 4.9365 0 2.9815 2.9815 0 1 0 2.4683-4.6639zm-9.8735 3.9892a.9948.9948 0 1 1 .9746-.9941.986.986 0 0 1 -.9746.9941zm4.9366 0a.9948.9948 0 1 1 .9746-.9941.986.986 0 0 1 -.9746.9941zm4.9365 0a.9948.9948 0 1 1 .9746-.9941.986.986 0 0 1 -.9746.9941z" fill="#1b4a99"/></g></svg>