<svg height="512" viewBox="0 0 60 60" width="512" xmlns="http://www.w3.org/2000/svg"><g id="Icons"><path d="m27 10.111a1 1 0 0 1 -1-1v-5.111a2 2 0 0 1 2-2h2a1 1 0 0 1 0 2h-2v5.111a1 1 0 0 1 -1 1z" fill="#f29c1f"/><path d="m37 10.186a1 1 0 0 1 -1-1v-5.186h-2a1 1 0 0 1 0-2h2a2 2 0 0 1 2 2v5.186a1 1 0 0 1 -1 1z" fill="#f29c1f"/><path d="m56 56h-52a3 3 0 0 1 -3-3v-31a8 8 0 0 1 8-8h32.952a4 4 0 0 1 1.961.514l13.048 7.339a4 4 0 0 1 2.039 3.486v27.661a3 3 0 0 1 -3 3z" fill="#3f5c6c"/><path d="m49.89 40h2.11a2.015 2.015 0 0 0 2-2 2.006 2.006 0 0 0 -2-2h-2.11z" fill="#35495e"/><circle cx="53" cy="50" fill="#67b9cc" r="2"/><path d="m56.48 21.58.78-1.35a2.006 2.006 0 0 0 -.73-2.73l-7.8-4.5a2.006 2.006 0 0 0 -2.73.73l-.85 1.48z" fill="#35495e"/><path d="m1 25h19v26h-19z" fill="#3b97d3"/><path d="m9 25h2v26h-2z" fill="#2980ba"/><path d="m18 14v-2a2 2 0 0 0 -2-2h-4a2 2 0 0 0 -2 2v2z" fill="#35495e"/><path d="m16 20h-8a1 1 0 0 1 0-2h8a1 1 0 0 1 0 2z" fill="#f3d55b"/><path d="m22 14 3.424-5.992a2 2 0 0 1 1.737-1.008h9.678a2 2 0 0 1 1.737 1.008l3.424 5.992z" fill="#f0c419"/><circle cx="32" cy="38" fill="#547580" r="18"/><path d="m46 38a13.826 13.826 0 0 1 -1.246 5.754 13.995 13.995 0 1 1 -18.508-18.508 13.826 13.826 0 0 1 5.754-1.246 14.023 14.023 0 0 1 14 14z" fill="#3b97d3"/><path d="m46 38a13.826 13.826 0 0 1 -1.246 5.754 13.826 13.826 0 0 1 -5.754 1.246 14.023 14.023 0 0 1 -14-14 13.826 13.826 0 0 1 1.246-5.754 13.826 13.826 0 0 1 5.754-1.246 14.023 14.023 0 0 1 14 14z" fill="#2fa8cc"/><path d="m42 39a1 1 0 0 1 -1-1 9.01 9.01 0 0 0 -9-9 1 1 0 0 1 0-2 11.013 11.013 0 0 1 11 11 1 1 0 0 1 -1 1z" fill="#67b9cc"/></g></svg>