<svg id="Layer_1" height="512" viewBox="0 0 512 512" width="512" xmlns="http://www.w3.org/2000/svg" data-name="Layer 1"><path d="m88.19 181.87h-44.99a7.01 7.01 0 0 0 -7 7.01v45.01a7 7 0 0 0 7 7h44.99a7 7 0 0 0 7-7v-45.01a7 7 0 0 0 -7-7.01zm-7 45.02h-30.98v-31.01h30.98zm7 25.51h-44.99a7 7 0 0 0 -7 7v44.99a7.008 7.008 0 0 0 7 7h44.99a7 7 0 0 0 7-7v-44.99a7 7 0 0 0 -7-7zm-7 44.99h-30.98v-30.99h30.98zm7 25.51h-44.99a7 7 0 0 0 -7 7v44.99a7.008 7.008 0 0 0 7 7h44.99a7 7 0 0 0 7-7v-44.99a7 7 0 0 0 -7-7zm-7 44.98h-30.98v-30.98h30.98zm92.01-186.01h-45.01a7.012 7.012 0 0 0 -7.01 7.01v45.01a7 7 0 0 0 7.01 7h45.01a7 7 0 0 0 7-7v-45.01a7 7 0 0 0 -7-7.01zm-7 45.02h-31.01v-31.01h31.01zm7 25.51h-45.01a7 7 0 0 0 -7.01 7v44.99a7.01 7.01 0 0 0 7.01 7h45.01a7 7 0 0 0 7-7v-44.99a7 7 0 0 0 -7-7zm-7 44.99h-31.01v-30.99h31.01zm7 25.51h-45.01a7 7 0 0 0 -7.01 7v44.99a7.01 7.01 0 0 0 7.01 7h45.01a7 7 0 0 0 7-7v-44.99a7 7 0 0 0 -7-7zm-7 44.98h-31.01v-30.98h31.01zm91.98-186.01h-44.98a7.012 7.012 0 0 0 -7.01 7.01v45.01a7 7 0 0 0 7.01 7h44.98a7 7 0 0 0 7-7v-45.01a7 7 0 0 0 -7-7.01zm-7 45.02h-30.98v-31.01h30.98zm7 25.51h-44.98a7 7 0 0 0 -7.01 7v44.99a7.01 7.01 0 0 0 7.01 7h44.98a7 7 0 0 0 7-7v-44.99a7 7 0 0 0 -7-7zm-7 44.99h-30.98v-30.99h30.98zm20.07 79.65h-12.39v-25.77a7 7 0 0 0 -14 0v32.77a7 7 0 0 0 7 7h19.39a7 7 0 0 0 0-14zm0 0h-12.39v-25.77a7 7 0 0 0 -14 0v32.77a7 7 0 0 0 7 7h19.39a7 7 0 0 0 0-14zm-13.07-124.64h-44.98a7 7 0 0 0 -7.01 7v44.99a7.01 7.01 0 0 0 7.01 7h44.98a7 7 0 0 0 7-7v-44.99a7 7 0 0 0 -7-7zm-7 44.99h-30.98v-30.99h30.98zm7-115.52h-44.98a7.012 7.012 0 0 0 -7.01 7.01v45.01a7 7 0 0 0 7.01 7h44.98a7 7 0 0 0 7-7v-45.01a7 7 0 0 0 -7-7.01zm-7 45.02h-30.98v-31.01h30.98zm-77.98 96.01h-45.01a7 7 0 0 0 -7.01 7v44.99a7.01 7.01 0 0 0 7.01 7h45.01a7 7 0 0 0 7-7v-44.99a7 7 0 0 0 -7-7zm-7 44.98h-31.01v-30.98h31.01zm7-115.48h-45.01a7 7 0 0 0 -7.01 7v44.99a7.01 7.01 0 0 0 7.01 7h45.01a7 7 0 0 0 7-7v-44.99a7 7 0 0 0 -7-7zm-7 44.99h-31.01v-30.99h31.01zm7-115.52h-45.01a7.012 7.012 0 0 0 -7.01 7.01v45.01a7 7 0 0 0 7.01 7h45.01a7 7 0 0 0 7-7v-45.01a7 7 0 0 0 -7-7.01zm-7 45.02h-31.01v-31.01h31.01zm-78.01 96.01h-44.99a7 7 0 0 0 -7 7v44.99a7.008 7.008 0 0 0 7 7h44.99a7 7 0 0 0 7-7v-44.99a7 7 0 0 0 -7-7zm-7 44.98h-30.98v-30.98h30.98zm7-115.48h-44.99a7 7 0 0 0 -7 7v44.99a7.008 7.008 0 0 0 7 7h44.99a7 7 0 0 0 7-7v-44.99a7 7 0 0 0 -7-7zm-7 44.99h-30.98v-30.99h30.98zm7-115.52h-44.99a7.01 7.01 0 0 0 -7 7.01v45.01a7 7 0 0 0 7 7h44.99a7 7 0 0 0 7-7v-45.01a7 7 0 0 0 -7-7.01zm-7 45.02h-30.98v-31.01h30.98zm7-45.02h-44.99a7.01 7.01 0 0 0 -7 7.01v45.01a7 7 0 0 0 7 7h44.99a7 7 0 0 0 7-7v-45.01a7 7 0 0 0 -7-7.01zm-7 45.02h-30.98v-31.01h30.98zm7 25.51h-44.99a7 7 0 0 0 -7 7v44.99a7.008 7.008 0 0 0 7 7h44.99a7 7 0 0 0 7-7v-44.99a7 7 0 0 0 -7-7zm-7 44.99h-30.98v-30.99h30.98zm7 25.51h-44.99a7 7 0 0 0 -7 7v44.99a7.008 7.008 0 0 0 7 7h44.99a7 7 0 0 0 7-7v-44.99a7 7 0 0 0 -7-7zm-7 44.98h-30.98v-30.98h30.98zm92.01-186.01h-45.01a7.012 7.012 0 0 0 -7.01 7.01v45.01a7 7 0 0 0 7.01 7h45.01a7 7 0 0 0 7-7v-45.01a7 7 0 0 0 -7-7.01zm-7 45.02h-31.01v-31.01h31.01zm7 25.51h-45.01a7 7 0 0 0 -7.01 7v44.99a7.01 7.01 0 0 0 7.01 7h45.01a7 7 0 0 0 7-7v-44.99a7 7 0 0 0 -7-7zm-7 44.99h-31.01v-30.99h31.01zm7 25.51h-45.01a7 7 0 0 0 -7.01 7v44.99a7.01 7.01 0 0 0 7.01 7h45.01a7 7 0 0 0 7-7v-44.99a7 7 0 0 0 -7-7zm-7 44.98h-31.01v-30.98h31.01zm91.98-186.01h-44.98a7.012 7.012 0 0 0 -7.01 7.01v45.01a7 7 0 0 0 7.01 7h44.98a7 7 0 0 0 7-7v-45.01a7 7 0 0 0 -7-7.01zm-7 45.02h-30.98v-31.01h30.98zm7 25.51h-44.98a7 7 0 0 0 -7.01 7v44.99a7.01 7.01 0 0 0 7.01 7h44.98a7 7 0 0 0 7-7v-44.99a7 7 0 0 0 -7-7zm-7 44.99h-30.98v-30.99h30.98zm20.07 79.65h-12.39v-25.77a7 7 0 0 0 -14 0v32.77a7 7 0 0 0 7 7h19.39a7 7 0 0 0 0-14zm0 0h-12.39v-25.77a7 7 0 0 0 -14 0v32.77a7 7 0 0 0 7 7h19.39a7 7 0 0 0 0-14zm-13.07-124.64h-44.98a7 7 0 0 0 -7.01 7v44.99a7.01 7.01 0 0 0 7.01 7h44.98a7 7 0 0 0 7-7v-44.99a7 7 0 0 0 -7-7zm-7 44.99h-30.98v-30.99h30.98zm7-115.52h-44.98a7.012 7.012 0 0 0 -7.01 7.01v45.01a7 7 0 0 0 7.01 7h44.98a7 7 0 0 0 7-7v-45.01a7 7 0 0 0 -7-7.01zm-7 45.02h-30.98v-31.01h30.98zm-77.98 96.01h-45.01a7 7 0 0 0 -7.01 7v44.99a7.01 7.01 0 0 0 7.01 7h45.01a7 7 0 0 0 7-7v-44.99a7 7 0 0 0 -7-7zm-7 44.98h-31.01v-30.98h31.01zm7-115.48h-45.01a7 7 0 0 0 -7.01 7v44.99a7.01 7.01 0 0 0 7.01 7h45.01a7 7 0 0 0 7-7v-44.99a7 7 0 0 0 -7-7zm-7 44.99h-31.01v-30.99h31.01zm7-115.52h-45.01a7.012 7.012 0 0 0 -7.01 7.01v45.01a7 7 0 0 0 7.01 7h45.01a7 7 0 0 0 7-7v-45.01a7 7 0 0 0 -7-7.01zm-7 45.02h-31.01v-31.01h31.01zm-78.01 96.01h-44.99a7 7 0 0 0 -7 7v44.99a7.008 7.008 0 0 0 7 7h44.99a7 7 0 0 0 7-7v-44.99a7 7 0 0 0 -7-7zm-7 44.98h-30.98v-30.98h30.98zm7-115.48h-44.99a7 7 0 0 0 -7 7v44.99a7.008 7.008 0 0 0 7 7h44.99a7 7 0 0 0 7-7v-44.99a7 7 0 0 0 -7-7zm-7 44.99h-30.98v-30.99h30.98zm7-115.52h-44.99a7.01 7.01 0 0 0 -7 7.01v45.01a7 7 0 0 0 7 7h44.99a7 7 0 0 0 7-7v-45.01a7 7 0 0 0 -7-7.01zm-7 45.02h-30.98v-31.01h30.98zm7-45.02h-44.99a7.01 7.01 0 0 0 -7 7.01v45.01a7 7 0 0 0 7 7h44.99a7 7 0 0 0 7-7v-45.01a7 7 0 0 0 -7-7.01zm-7 45.02h-30.98v-31.01h30.98zm7 25.51h-44.99a7 7 0 0 0 -7 7v44.99a7.008 7.008 0 0 0 7 7h44.99a7 7 0 0 0 7-7v-44.99a7 7 0 0 0 -7-7zm-7 44.99h-30.98v-30.99h30.98zm7 25.51h-44.99a7 7 0 0 0 -7 7v44.99a7.008 7.008 0 0 0 7 7h44.99a7 7 0 0 0 7-7v-44.99a7 7 0 0 0 -7-7zm-7 44.98h-30.98v-30.98h30.98zm92.01-186.01h-45.01a7.012 7.012 0 0 0 -7.01 7.01v45.01a7 7 0 0 0 7.01 7h45.01a7 7 0 0 0 7-7v-45.01a7 7 0 0 0 -7-7.01zm-7 45.02h-31.01v-31.01h31.01zm7 25.51h-45.01a7 7 0 0 0 -7.01 7v44.99a7.01 7.01 0 0 0 7.01 7h45.01a7 7 0 0 0 7-7v-44.99a7 7 0 0 0 -7-7zm-7 44.99h-31.01v-30.99h31.01zm7 25.51h-45.01a7 7 0 0 0 -7.01 7v44.99a7.01 7.01 0 0 0 7.01 7h45.01a7 7 0 0 0 7-7v-44.99a7 7 0 0 0 -7-7zm-7 44.98h-31.01v-30.98h31.01zm91.98-186.01h-44.98a7.012 7.012 0 0 0 -7.01 7.01v45.01a7 7 0 0 0 7.01 7h44.98a7 7 0 0 0 7-7v-45.01a7 7 0 0 0 -7-7.01zm-7 45.02h-30.98v-31.01h30.98zm7 25.51h-44.98a7 7 0 0 0 -7.01 7v44.99a7.01 7.01 0 0 0 7.01 7h44.98a7 7 0 0 0 7-7v-44.99a7 7 0 0 0 -7-7zm-7 44.99h-30.98v-30.99h30.98zm20.07 79.65h-12.39v-25.77a7 7 0 0 0 -14 0v32.77a7 7 0 0 0 7 7h19.39a7 7 0 0 0 0-14zm0 0h-12.39v-25.77a7 7 0 0 0 -14 0v32.77a7 7 0 0 0 7 7h19.39a7 7 0 0 0 0-14zm-13.07-124.64h-44.98a7 7 0 0 0 -7.01 7v44.99a7.01 7.01 0 0 0 7.01 7h44.98a7 7 0 0 0 7-7v-44.99a7 7 0 0 0 -7-7zm-7 44.99h-30.98v-30.99h30.98zm7-115.52h-44.98a7.012 7.012 0 0 0 -7.01 7.01v45.01a7 7 0 0 0 7.01 7h44.98a7 7 0 0 0 7-7v-45.01a7 7 0 0 0 -7-7.01zm-7 45.02h-30.98v-31.01h30.98zm-77.98 96.01h-45.01a7 7 0 0 0 -7.01 7v44.99a7.01 7.01 0 0 0 7.01 7h45.01a7 7 0 0 0 7-7v-44.99a7 7 0 0 0 -7-7zm-7 44.98h-31.01v-30.98h31.01zm7-115.48h-45.01a7 7 0 0 0 -7.01 7v44.99a7.01 7.01 0 0 0 7.01 7h45.01a7 7 0 0 0 7-7v-44.99a7 7 0 0 0 -7-7zm-7 44.99h-31.01v-30.99h31.01zm7-115.52h-45.01a7.012 7.012 0 0 0 -7.01 7.01v45.01a7 7 0 0 0 7.01 7h45.01a7 7 0 0 0 7-7v-45.01a7 7 0 0 0 -7-7.01zm-7 45.02h-31.01v-31.01h31.01zm-78.01 96.01h-44.99a7 7 0 0 0 -7 7v44.99a7.008 7.008 0 0 0 7 7h44.99a7 7 0 0 0 7-7v-44.99a7 7 0 0 0 -7-7zm-7 44.98h-30.98v-30.98h30.98zm7-115.48h-44.99a7 7 0 0 0 -7 7v44.99a7.008 7.008 0 0 0 7 7h44.99a7 7 0 0 0 7-7v-44.99a7 7 0 0 0 -7-7zm-7 44.99h-30.98v-30.99h30.98zm7-115.52h-44.99a7.01 7.01 0 0 0 -7 7.01v45.01a7 7 0 0 0 7 7h44.99a7 7 0 0 0 7-7v-45.01a7 7 0 0 0 -7-7.01zm-7 45.02h-30.98v-31.01h30.98zm7-45.02h-44.99a7.01 7.01 0 0 0 -7 7.01v45.01a7 7 0 0 0 7 7h44.99a7 7 0 0 0 7-7v-45.01a7 7 0 0 0 -7-7.01zm-7 45.02h-30.98v-31.01h30.98zm7 25.51h-44.99a7 7 0 0 0 -7 7v44.99a7.008 7.008 0 0 0 7 7h44.99a7 7 0 0 0 7-7v-44.99a7 7 0 0 0 -7-7zm-7 44.99h-30.98v-30.99h30.98zm7 25.51h-44.99a7 7 0 0 0 -7 7v44.99a7.008 7.008 0 0 0 7 7h44.99a7 7 0 0 0 7-7v-44.99a7 7 0 0 0 -7-7zm-7 44.98h-30.98v-30.98h30.98zm92.01-186.01h-45.01a7.012 7.012 0 0 0 -7.01 7.01v45.01a7 7 0 0 0 7.01 7h45.01a7 7 0 0 0 7-7v-45.01a7 7 0 0 0 -7-7.01zm-7 45.02h-31.01v-31.01h31.01zm7 25.51h-45.01a7 7 0 0 0 -7.01 7v44.99a7.01 7.01 0 0 0 7.01 7h45.01a7 7 0 0 0 7-7v-44.99a7 7 0 0 0 -7-7zm-7 44.99h-31.01v-30.99h31.01zm7 25.51h-45.01a7 7 0 0 0 -7.01 7v44.99a7.01 7.01 0 0 0 7.01 7h45.01a7 7 0 0 0 7-7v-44.99a7 7 0 0 0 -7-7zm-7 44.98h-31.01v-30.98h31.01zm91.98-186.01h-44.98a7.012 7.012 0 0 0 -7.01 7.01v45.01a7 7 0 0 0 7.01 7h44.98a7 7 0 0 0 7-7v-45.01a7 7 0 0 0 -7-7.01zm-7 45.02h-30.98v-31.01h30.98zm7 25.51h-44.98a7 7 0 0 0 -7.01 7v44.99a7.01 7.01 0 0 0 7.01 7h44.98a7 7 0 0 0 7-7v-44.99a7 7 0 0 0 -7-7zm-7 44.99h-30.98v-30.99h30.98zm20.07 79.65h-12.39v-25.77a7 7 0 0 0 -14 0v32.77a7 7 0 0 0 7 7h19.39a7 7 0 0 0 0-14zm0 0h-12.39v-25.77a7 7 0 0 0 -14 0v32.77a7 7 0 0 0 7 7h19.39a7 7 0 0 0 0-14zm-13.07-124.64h-44.98a7 7 0 0 0 -7.01 7v44.99a7.01 7.01 0 0 0 7.01 7h44.98a7 7 0 0 0 7-7v-44.99a7 7 0 0 0 -7-7zm-7 44.99h-30.98v-30.99h30.98zm7-115.52h-44.98a7.012 7.012 0 0 0 -7.01 7.01v45.01a7 7 0 0 0 7.01 7h44.98a7 7 0 0 0 7-7v-45.01a7 7 0 0 0 -7-7.01zm-7 45.02h-30.98v-31.01h30.98zm-77.98 96.01h-45.01a7 7 0 0 0 -7.01 7v44.99a7.01 7.01 0 0 0 7.01 7h45.01a7 7 0 0 0 7-7v-44.99a7 7 0 0 0 -7-7zm-7 44.98h-31.01v-30.98h31.01zm7-115.48h-45.01a7 7 0 0 0 -7.01 7v44.99a7.01 7.01 0 0 0 7.01 7h45.01a7 7 0 0 0 7-7v-44.99a7 7 0 0 0 -7-7zm-7 44.99h-31.01v-30.99h31.01zm7-115.52h-45.01a7.012 7.012 0 0 0 -7.01 7.01v45.01a7 7 0 0 0 7.01 7h45.01a7 7 0 0 0 7-7v-45.01a7 7 0 0 0 -7-7.01zm-7 45.02h-31.01v-31.01h31.01zm-78.01 96.01h-44.99a7 7 0 0 0 -7 7v44.99a7.008 7.008 0 0 0 7 7h44.99a7 7 0 0 0 7-7v-44.99a7 7 0 0 0 -7-7zm-7 44.98h-30.98v-30.98h30.98zm7-115.48h-44.99a7 7 0 0 0 -7 7v44.99a7.008 7.008 0 0 0 7 7h44.99a7 7 0 0 0 7-7v-44.99a7 7 0 0 0 -7-7zm-7 44.99h-30.98v-30.99h30.98zm7-115.52h-44.99a7.01 7.01 0 0 0 -7 7.01v45.01a7 7 0 0 0 7 7h44.99a7 7 0 0 0 7-7v-45.01a7 7 0 0 0 -7-7.01zm-7 45.02h-30.98v-31.01h30.98zm220.19 114.24v-205.89a38.707 38.707 0 0 0 -38.66-38.66h-26.28v-16.16a7 7 0 0 0 -14 0v16.16h-38.5v-16.16a7 7 0 0 0 -14 0v16.16h-38.49v-16.16a7.005 7.005 0 0 0 -14.01 0v16.16h-38.49v-16.16a7.005 7.005 0 0 0 -14.01 0v16.16h-26.27a38.715 38.715 0 0 0 -38.67 38.66v234.63a38.709 38.709 0 0 0 38.67 38.66h152.95a65.314 65.314 0 1 0 109.76-67.4zm-287.37-205.89a24.691 24.691 0 0 1 24.66-24.66h26.27v16.13a7.005 7.005 0 0 0 14.01 0v-16.13h38.49v16.13a7.005 7.005 0 0 0 14.01 0v-16.13h38.49v16.13a7 7 0 1 0 14 0v-16.13h38.5v16.13a7 7 0 0 0 14 0v-16.13h26.28a24.691 24.691 0 0 1 24.66 24.66v20.02h-273.37zm173.68 259.29h-149.02a24.685 24.685 0 0 1 -24.66-24.66v-200.61h273.37v159.78a65.278 65.278 0 0 0 -99.69 65.49zm64.48 40.82a51.419 51.419 0 0 1 -48.92-35.78l-.12-.36a51.341 51.341 0 1 1 49.04 36.14zm19.08-58.31h-12.39v-25.77a7 7 0 0 0 -14 0v32.77a7 7 0 0 0 7 7h19.39a7 7 0 0 0 0-14zm-58.05-65.65h44.98a7 7 0 0 0 7-7v-44.99a7 7 0 0 0 -7-7h-44.98a7 7 0 0 0 -7.01 7v44.99a7.01 7.01 0 0 0 7.01 7zm7-44.99h30.98v30.99h-30.98zm-7-25.51h44.98a7 7 0 0 0 7-7v-45.01a7 7 0 0 0 -7-7.01h-44.98a7.012 7.012 0 0 0 -7.01 7.01v45.01a7 7 0 0 0 7.01 7zm7-45.01h30.98v31.01h-30.98zm-47 127.02h-45.01a7 7 0 0 0 -7.01 7v44.99a7.01 7.01 0 0 0 7.01 7h45.01a7 7 0 0 0 7-7v-44.99a7 7 0 0 0 -7-7zm-7 44.98h-31.01v-30.98h31.01zm7-115.48h-45.01a7 7 0 0 0 -7.01 7v44.99a7.01 7.01 0 0 0 7.01 7h45.01a7 7 0 0 0 7-7v-44.99a7 7 0 0 0 -7-7zm-7 44.99h-31.01v-30.99h31.01zm7-115.52h-45.01a7.012 7.012 0 0 0 -7.01 7.01v45.01a7 7 0 0 0 7.01 7h45.01a7 7 0 0 0 7-7v-45.01a7 7 0 0 0 -7-7.01zm-7 45.02h-31.01v-31.01h31.01zm-78.01 96.01h-44.99a7 7 0 0 0 -7 7v44.99a7.008 7.008 0 0 0 7 7h44.99a7 7 0 0 0 7-7v-44.99a7 7 0 0 0 -7-7zm-7 44.98h-30.98v-30.98h30.98zm7-115.48h-44.99a7 7 0 0 0 -7 7v44.99a7.008 7.008 0 0 0 7 7h44.99a7 7 0 0 0 7-7v-44.99a7 7 0 0 0 -7-7zm-7 44.99h-30.98v-30.99h30.98zm7-115.52h-44.99a7.01 7.01 0 0 0 -7 7.01v45.01a7 7 0 0 0 7 7h44.99a7 7 0 0 0 7-7v-45.01a7 7 0 0 0 -7-7.01zm-7 45.02h-30.98v-31.01h30.98zm7-45.02h-44.99a7.01 7.01 0 0 0 -7 7.01v45.01a7 7 0 0 0 7 7h44.99a7 7 0 0 0 7-7v-45.01a7 7 0 0 0 -7-7.01zm-7 45.02h-30.98v-31.01h30.98zm7 25.51h-44.99a7 7 0 0 0 -7 7v44.99a7.008 7.008 0 0 0 7 7h44.99a7 7 0 0 0 7-7v-44.99a7 7 0 0 0 -7-7zm-7 44.99h-30.98v-30.99h30.98zm7 25.51h-44.99a7 7 0 0 0 -7 7v44.99a7.008 7.008 0 0 0 7 7h44.99a7 7 0 0 0 7-7v-44.99a7 7 0 0 0 -7-7zm-7 44.98h-30.98v-30.98h30.98zm92.01-186.01h-45.01a7.012 7.012 0 0 0 -7.01 7.01v45.01a7 7 0 0 0 7.01 7h45.01a7 7 0 0 0 7-7v-45.01a7 7 0 0 0 -7-7.01zm-7 45.02h-31.01v-31.01h31.01zm7 25.51h-45.01a7 7 0 0 0 -7.01 7v44.99a7.01 7.01 0 0 0 7.01 7h45.01a7 7 0 0 0 7-7v-44.99a7 7 0 0 0 -7-7zm-7 44.99h-31.01v-30.99h31.01zm7 25.51h-45.01a7 7 0 0 0 -7.01 7v44.99a7.01 7.01 0 0 0 7.01 7h45.01a7 7 0 0 0 7-7v-44.99a7 7 0 0 0 -7-7zm-7 44.98h-31.01v-30.98h31.01zm91.98-186.01h-44.98a7.012 7.012 0 0 0 -7.01 7.01v45.01a7 7 0 0 0 7.01 7h44.98a7 7 0 0 0 7-7v-45.01a7 7 0 0 0 -7-7.01zm-7 45.02h-30.98v-31.01h30.98zm7 25.51h-44.98a7 7 0 0 0 -7.01 7v44.99a7.01 7.01 0 0 0 7.01 7h44.98a7 7 0 0 0 7-7v-44.99a7 7 0 0 0 -7-7zm-7 44.99h-30.98v-30.99h30.98zm20.07 79.65h-12.39v-25.77a7 7 0 0 0 -14 0v32.77a7 7 0 0 0 7 7h19.39a7 7 0 0 0 0-14zm0 0h-12.39v-25.77a7 7 0 0 0 -14 0v32.77a7 7 0 0 0 7 7h19.39a7 7 0 0 0 0-14zm-13.07-124.64h-44.98a7 7 0 0 0 -7.01 7v44.99a7.01 7.01 0 0 0 7.01 7h44.98a7 7 0 0 0 7-7v-44.99a7 7 0 0 0 -7-7zm-7 44.99h-30.98v-30.99h30.98zm7-115.52h-44.98a7.012 7.012 0 0 0 -7.01 7.01v45.01a7 7 0 0 0 7.01 7h44.98a7 7 0 0 0 7-7v-45.01a7 7 0 0 0 -7-7.01zm-7 45.02h-30.98v-31.01h30.98zm-77.98 96.01h-45.01a7 7 0 0 0 -7.01 7v44.99a7.01 7.01 0 0 0 7.01 7h45.01a7 7 0 0 0 7-7v-44.99a7 7 0 0 0 -7-7zm-7 44.98h-31.01v-30.98h31.01zm7-115.48h-45.01a7 7 0 0 0 -7.01 7v44.99a7.01 7.01 0 0 0 7.01 7h45.01a7 7 0 0 0 7-7v-44.99a7 7 0 0 0 -7-7zm-7 44.99h-31.01v-30.99h31.01zm7-115.52h-45.01a7.012 7.012 0 0 0 -7.01 7.01v45.01a7 7 0 0 0 7.01 7h45.01a7 7 0 0 0 7-7v-45.01a7 7 0 0 0 -7-7.01zm-7 45.02h-31.01v-31.01h31.01zm-78.01 96.01h-44.99a7 7 0 0 0 -7 7v44.99a7.008 7.008 0 0 0 7 7h44.99a7 7 0 0 0 7-7v-44.99a7 7 0 0 0 -7-7zm-7 44.98h-30.98v-30.98h30.98zm7-115.48h-44.99a7 7 0 0 0 -7 7v44.99a7.008 7.008 0 0 0 7 7h44.99a7 7 0 0 0 7-7v-44.99a7 7 0 0 0 -7-7zm-7 44.99h-30.98v-30.99h30.98zm7-115.52h-44.99a7.01 7.01 0 0 0 -7 7.01v45.01a7 7 0 0 0 7 7h44.99a7 7 0 0 0 7-7v-45.01a7 7 0 0 0 -7-7.01zm-7 45.02h-30.98v-31.01h30.98zm7-45.02h-44.99a7.01 7.01 0 0 0 -7 7.01v45.01a7 7 0 0 0 7 7h44.99a7 7 0 0 0 7-7v-45.01a7 7 0 0 0 -7-7.01zm-7 45.02h-30.98v-31.01h30.98zm7 25.51h-44.99a7 7 0 0 0 -7 7v44.99a7.008 7.008 0 0 0 7 7h44.99a7 7 0 0 0 7-7v-44.99a7 7 0 0 0 -7-7zm-7 44.99h-30.98v-30.99h30.98zm7 25.51h-44.99a7 7 0 0 0 -7 7v44.99a7.008 7.008 0 0 0 7 7h44.99a7 7 0 0 0 7-7v-44.99a7 7 0 0 0 -7-7zm-7 44.98h-30.98v-30.98h30.98zm92.01-186.01h-45.01a7.012 7.012 0 0 0 -7.01 7.01v45.01a7 7 0 0 0 7.01 7h45.01a7 7 0 0 0 7-7v-45.01a7 7 0 0 0 -7-7.01zm-7 45.02h-31.01v-31.01h31.01zm7 25.51h-45.01a7 7 0 0 0 -7.01 7v44.99a7.01 7.01 0 0 0 7.01 7h45.01a7 7 0 0 0 7-7v-44.99a7 7 0 0 0 -7-7zm-7 44.99h-31.01v-30.99h31.01zm7 25.51h-45.01a7 7 0 0 0 -7.01 7v44.99a7.01 7.01 0 0 0 7.01 7h45.01a7 7 0 0 0 7-7v-44.99a7 7 0 0 0 -7-7zm-7 44.98h-31.01v-30.98h31.01zm91.98-186.01h-44.98a7.012 7.012 0 0 0 -7.01 7.01v45.01a7 7 0 0 0 7.01 7h44.98a7 7 0 0 0 7-7v-45.01a7 7 0 0 0 -7-7.01zm-7 45.02h-30.98v-31.01h30.98zm7 25.51h-44.98a7 7 0 0 0 -7.01 7v44.99a7.01 7.01 0 0 0 7.01 7h44.98a7 7 0 0 0 7-7v-44.99a7 7 0 0 0 -7-7zm-7 44.99h-30.98v-30.99h30.98zm20.07 79.65h-12.39v-25.77a7 7 0 0 0 -14 0v32.77a7 7 0 0 0 7 7h19.39a7 7 0 0 0 0-14zm0 0h-12.39v-25.77a7 7 0 0 0 -14 0v32.77a7 7 0 0 0 7 7h19.39a7 7 0 0 0 0-14zm-13.07-124.64h-44.98a7 7 0 0 0 -7.01 7v44.99a7.01 7.01 0 0 0 7.01 7h44.98a7 7 0 0 0 7-7v-44.99a7 7 0 0 0 -7-7zm-7 44.99h-30.98v-30.99h30.98zm7-115.52h-44.98a7.012 7.012 0 0 0 -7.01 7.01v45.01a7 7 0 0 0 7.01 7h44.98a7 7 0 0 0 7-7v-45.01a7 7 0 0 0 -7-7.01zm-7 45.02h-30.98v-31.01h30.98zm-77.98 96.01h-45.01a7 7 0 0 0 -7.01 7v44.99a7.01 7.01 0 0 0 7.01 7h45.01a7 7 0 0 0 7-7v-44.99a7 7 0 0 0 -7-7zm-7 44.98h-31.01v-30.98h31.01zm7-115.48h-45.01a7 7 0 0 0 -7.01 7v44.99a7.01 7.01 0 0 0 7.01 7h45.01a7 7 0 0 0 7-7v-44.99a7 7 0 0 0 -7-7zm-7 44.99h-31.01v-30.99h31.01zm7-115.52h-45.01a7.012 7.012 0 0 0 -7.01 7.01v45.01a7 7 0 0 0 7.01 7h45.01a7 7 0 0 0 7-7v-45.01a7 7 0 0 0 -7-7.01zm-7 45.02h-31.01v-31.01h31.01zm-78.01 96.01h-44.99a7 7 0 0 0 -7 7v44.99a7.008 7.008 0 0 0 7 7h44.99a7 7 0 0 0 7-7v-44.99a7 7 0 0 0 -7-7zm-7 44.98h-30.98v-30.98h30.98zm7-115.48h-44.99a7 7 0 0 0 -7 7v44.99a7.008 7.008 0 0 0 7 7h44.99a7 7 0 0 0 7-7v-44.99a7 7 0 0 0 -7-7zm-7 44.99h-30.98v-30.99h30.98zm7-115.52h-44.99a7.01 7.01 0 0 0 -7 7.01v45.01a7 7 0 0 0 7 7h44.99a7 7 0 0 0 7-7v-45.01a7 7 0 0 0 -7-7.01zm-7 45.02h-30.98v-31.01h30.98zm7-45.02h-44.99a7.01 7.01 0 0 0 -7 7.01v45.01a7 7 0 0 0 7 7h44.99a7 7 0 0 0 7-7v-45.01a7 7 0 0 0 -7-7.01zm-7 45.02h-30.98v-31.01h30.98zm7 25.51h-44.99a7 7 0 0 0 -7 7v44.99a7.008 7.008 0 0 0 7 7h44.99a7 7 0 0 0 7-7v-44.99a7 7 0 0 0 -7-7zm-7 44.99h-30.98v-30.99h30.98zm7 25.51h-44.99a7 7 0 0 0 -7 7v44.99a7.008 7.008 0 0 0 7 7h44.99a7 7 0 0 0 7-7v-44.99a7 7 0 0 0 -7-7zm-7 44.98h-30.98v-30.98h30.98zm92.01-186.01h-45.01a7.012 7.012 0 0 0 -7.01 7.01v45.01a7 7 0 0 0 7.01 7h45.01a7 7 0 0 0 7-7v-45.01a7 7 0 0 0 -7-7.01zm-7 45.02h-31.01v-31.01h31.01zm7 25.51h-45.01a7 7 0 0 0 -7.01 7v44.99a7.01 7.01 0 0 0 7.01 7h45.01a7 7 0 0 0 7-7v-44.99a7 7 0 0 0 -7-7zm-7 44.99h-31.01v-30.99h31.01zm7 25.51h-45.01a7 7 0 0 0 -7.01 7v44.99a7.01 7.01 0 0 0 7.01 7h45.01a7 7 0 0 0 7-7v-44.99a7 7 0 0 0 -7-7zm-7 44.98h-31.01v-30.98h31.01zm91.98-186.01h-44.98a7.012 7.012 0 0 0 -7.01 7.01v45.01a7 7 0 0 0 7.01 7h44.98a7 7 0 0 0 7-7v-45.01a7 7 0 0 0 -7-7.01zm-7 45.02h-30.98v-31.01h30.98zm7 25.51h-44.98a7 7 0 0 0 -7.01 7v44.99a7.01 7.01 0 0 0 7.01 7h44.98a7 7 0 0 0 7-7v-44.99a7 7 0 0 0 -7-7zm-7 44.99h-30.98v-30.99h30.98zm20.07 79.65h-12.39v-25.77a7 7 0 0 0 -14 0v32.77a7 7 0 0 0 7 7h19.39a7 7 0 0 0 0-14zm0 0h-12.39v-25.77a7 7 0 0 0 -14 0v32.77a7 7 0 0 0 7 7h19.39a7 7 0 0 0 0-14zm-13.07-124.64h-44.98a7 7 0 0 0 -7.01 7v44.99a7.01 7.01 0 0 0 7.01 7h44.98a7 7 0 0 0 7-7v-44.99a7 7 0 0 0 -7-7zm-7 44.99h-30.98v-30.99h30.98zm7-115.52h-44.98a7.012 7.012 0 0 0 -7.01 7.01v45.01a7 7 0 0 0 7.01 7h44.98a7 7 0 0 0 7-7v-45.01a7 7 0 0 0 -7-7.01zm-7 45.02h-30.98v-31.01h30.98zm-77.98 96.01h-45.01a7 7 0 0 0 -7.01 7v44.99a7.01 7.01 0 0 0 7.01 7h45.01a7 7 0 0 0 7-7v-44.99a7 7 0 0 0 -7-7zm-7 44.98h-31.01v-30.98h31.01zm7-115.48h-45.01a7 7 0 0 0 -7.01 7v44.99a7.01 7.01 0 0 0 7.01 7h45.01a7 7 0 0 0 7-7v-44.99a7 7 0 0 0 -7-7zm-7 44.99h-31.01v-30.99h31.01zm7-115.52h-45.01a7.012 7.012 0 0 0 -7.01 7.01v45.01a7 7 0 0 0 7.01 7h45.01a7 7 0 0 0 7-7v-45.01a7 7 0 0 0 -7-7.01zm-7 45.02h-31.01v-31.01h31.01zm-78.01 96.01h-44.99a7 7 0 0 0 -7 7v44.99a7.008 7.008 0 0 0 7 7h44.99a7 7 0 0 0 7-7v-44.99a7 7 0 0 0 -7-7zm-7 44.98h-30.98v-30.98h30.98zm7-115.48h-44.99a7 7 0 0 0 -7 7v44.99a7.008 7.008 0 0 0 7 7h44.99a7 7 0 0 0 7-7v-44.99a7 7 0 0 0 -7-7zm-7 44.99h-30.98v-30.99h30.98zm7-115.52h-44.99a7.01 7.01 0 0 0 -7 7.01v45.01a7 7 0 0 0 7 7h44.99a7 7 0 0 0 7-7v-45.01a7 7 0 0 0 -7-7.01zm-7 45.02h-30.98v-31.01h30.98zm7-45.02h-44.99a7.01 7.01 0 0 0 -7 7.01v45.01a7 7 0 0 0 7 7h44.99a7 7 0 0 0 7-7v-45.01a7 7 0 0 0 -7-7.01zm-7 45.02h-30.98v-31.01h30.98zm7 25.51h-44.99a7 7 0 0 0 -7 7v44.99a7.008 7.008 0 0 0 7 7h44.99a7 7 0 0 0 7-7v-44.99a7 7 0 0 0 -7-7zm-7 44.99h-30.98v-30.99h30.98zm7 25.51h-44.99a7 7 0 0 0 -7 7v44.99a7.008 7.008 0 0 0 7 7h44.99a7 7 0 0 0 7-7v-44.99a7 7 0 0 0 -7-7zm-7 44.98h-30.98v-30.98h30.98zm92.01-186.01h-45.01a7.012 7.012 0 0 0 -7.01 7.01v45.01a7 7 0 0 0 7.01 7h45.01a7 7 0 0 0 7-7v-45.01a7 7 0 0 0 -7-7.01zm-7 45.02h-31.01v-31.01h31.01zm7 25.51h-45.01a7 7 0 0 0 -7.01 7v44.99a7.01 7.01 0 0 0 7.01 7h45.01a7 7 0 0 0 7-7v-44.99a7 7 0 0 0 -7-7zm-7 44.99h-31.01v-30.99h31.01zm7 25.51h-45.01a7 7 0 0 0 -7.01 7v44.99a7.01 7.01 0 0 0 7.01 7h45.01a7 7 0 0 0 7-7v-44.99a7 7 0 0 0 -7-7zm-7 44.98h-31.01v-30.98h31.01zm91.98-186.01h-44.98a7.012 7.012 0 0 0 -7.01 7.01v45.01a7 7 0 0 0 7.01 7h44.98a7 7 0 0 0 7-7v-45.01a7 7 0 0 0 -7-7.01zm-7 45.02h-30.98v-31.01h30.98zm7 25.51h-44.98a7 7 0 0 0 -7.01 7v44.99a7.01 7.01 0 0 0 7.01 7h44.98a7 7 0 0 0 7-7v-44.99a7 7 0 0 0 -7-7zm-7 44.99h-30.98v-30.99h30.98zm20.07 79.65h-12.39v-25.77a7 7 0 0 0 -14 0v32.77a7 7 0 0 0 7 7h19.39a7 7 0 0 0 0-14zm168.43-229.69h57.09a15.242 15.242 0 0 0 15.23-15.22v-57.09a15.244 15.244 0 0 0 -15.23-15.23h-57.09a15.242 15.242 0 0 0 -15.22 15.23v21.54h-54.39a7 7 0 0 0 -7.01 7v145.42h-30.81a7 7 0 0 0 0 14h30.81v145.45a7.01 7.01 0 0 0 7.01 7h54.39v21.54a15.23 15.23 0 0 0 15.22 15.2h57.09a15.232 15.232 0 0 0 15.23-15.2v-57.12a15.23 15.23 0 0 0 -15.23-15.19h-57.09a15.227 15.227 0 0 0 -15.22 15.19v21.58h-47.39v-138.45h47.39v21.55a15.24 15.24 0 0 0 15.22 15.22h57.09a15.242 15.242 0 0 0 15.23-15.22v-57.09a15.244 15.244 0 0 0 -15.23-15.23h-57.09a15.242 15.242 0 0 0 -15.22 15.23v21.54h-47.39v-138.42h47.39v21.55a15.24 15.24 0 0 0 15.22 15.22zm-1.21-72.31a1.21 1.21 0 0 1 1.21-1.22h57.09a1.212 1.212 0 0 1 1.22 1.22v57.09a1.25 1.25 0 0 1 -1.22 1.21h-57.09a1.248 1.248 0 0 1 -1.21-1.21zm0 304.83a1.217 1.217 0 0 1 1.21-1.19h57.09a1.219 1.219 0 0 1 1.22 1.19v57.12a1.212 1.212 0 0 1 -1.22 1.19h-57.09a1.21 1.21 0 0 1 -1.21-1.19zm0-152.41a1.25 1.25 0 0 1 1.21-1.22h57.09a1.252 1.252 0 0 1 1.22 1.22v57.09a1.21 1.21 0 0 1 -1.22 1.21h-57.09a1.208 1.208 0 0 1 -1.21-1.21zm-350.28-45.59h-44.99a7.01 7.01 0 0 0 -7 7.01v45.01a7 7 0 0 0 7 7h44.99a7 7 0 0 0 7-7v-45.01a7 7 0 0 0 -7-7.01zm-7 45.02h-30.98v-31.01h30.98zm7 25.51h-44.99a7 7 0 0 0 -7 7v44.99a7.008 7.008 0 0 0 7 7h44.99a7 7 0 0 0 7-7v-44.99a7 7 0 0 0 -7-7zm-7 44.99h-30.98v-30.99h30.98zm7 25.51h-44.99a7 7 0 0 0 -7 7v44.99a7.008 7.008 0 0 0 7 7h44.99a7 7 0 0 0 7-7v-44.99a7 7 0 0 0 -7-7zm-7 44.98h-30.98v-30.98h30.98zm92.01-186.01h-45.01a7.012 7.012 0 0 0 -7.01 7.01v45.01a7 7 0 0 0 7.01 7h45.01a7 7 0 0 0 7-7v-45.01a7 7 0 0 0 -7-7.01zm-7 45.02h-31.01v-31.01h31.01zm7 25.51h-45.01a7 7 0 0 0 -7.01 7v44.99a7.01 7.01 0 0 0 7.01 7h45.01a7 7 0 0 0 7-7v-44.99a7 7 0 0 0 -7-7zm-7 44.99h-31.01v-30.99h31.01zm7 25.51h-45.01a7 7 0 0 0 -7.01 7v44.99a7.01 7.01 0 0 0 7.01 7h45.01a7 7 0 0 0 7-7v-44.99a7 7 0 0 0 -7-7zm-7 44.98h-31.01v-30.98h31.01zm91.98-186.01h-44.98a7.012 7.012 0 0 0 -7.01 7.01v45.01a7 7 0 0 0 7.01 7h44.98a7 7 0 0 0 7-7v-45.01a7 7 0 0 0 -7-7.01zm-7 45.02h-30.98v-31.01h30.98zm7 25.51h-44.98a7 7 0 0 0 -7.01 7v44.99a7.01 7.01 0 0 0 7.01 7h44.98a7 7 0 0 0 7-7v-44.99a7 7 0 0 0 -7-7zm-7 44.99h-30.98v-30.99h30.98zm20.07 79.65h-12.39v-25.77a7 7 0 0 0 -14 0v32.77a7 7 0 0 0 7 7h19.39a7 7 0 0 0 0-14z" fill="#57a4ff"/><path d="m220.2 226.89v-31.01h30.98v31.01zm-85.01 70.5h31.01v-30.99h-31.01zm-84.98 70.49h30.98v-30.98h-30.98zm0-140.99h30.98v-31.01h-30.98zm446.56-153.07h-57.09a1.21 1.21 0 0 0 -1.21 1.22v57.09a1.248 1.248 0 0 0 1.21 1.21h57.09a1.25 1.25 0 0 0 1.22-1.21v-57.09a1.212 1.212 0 0 0 -1.22-1.22zm0 304.86h-57.09a1.217 1.217 0 0 0 -1.21 1.19v57.12a1.21 1.21 0 0 0 1.21 1.19h57.09a1.212 1.212 0 0 0 1.22-1.19v-57.12a1.219 1.219 0 0 0 -1.22-1.19zm-193.26 5.36a51.337 51.337 0 0 1 -100.26 15.53l-.12-.36a51.335 51.335 0 1 1 100.38-15.17zm-25.26 0a7 7 0 0 0 -7-7h-12.39v-25.77a7 7 0 0 0 -14 0v32.77a7 7 0 0 0 7 7h19.39a7 7 0 0 0 7-7zm9.13-248.8a24.691 24.691 0 0 0 -24.66-24.66h-26.28v16.13a7 7 0 0 1 -14 0v-16.13h-38.5v16.13a7 7 0 1 1 -14 0v-16.13h-38.49v16.13a7.005 7.005 0 0 1 -14.01 0v-16.13h-38.49v16.13a7.005 7.005 0 0 1 -14.01 0v-16.13h-26.27a24.691 24.691 0 0 0 -24.66 24.66v20.02h273.37z" fill="#9bc9ff"/></svg>